<svg xmlns="http://www.w3.org/2000/svg" width="98" height="98" viewBox="0 0 98 98">
  <g id="Grupo_187" data-name="Grupo 187" transform="translate(-151 -384)">
    <circle id="Elipse_39" data-name="Elipse 39" cx="49" cy="49" r="49" transform="translate(151 384)" fill="#ded8e8"/>
    <g id="outline" transform="translate(171.947 407.939)">
      <path id="Trazado_63" data-name="Trazado 63" d="M1040.622,636.468a3.666,3.666,0,0,0-2.431,1.12l-4.3,2.579h-3.443a.926.926,0,0,0-.925.925v1.849h-1.991l-.8-4.777a.925.925,0,0,0-1.825.3l.746,4.472h-2.73l-.675-4.721a2.773,2.773,0,0,0-1.506-2.089l-2.832-1.416a.925.925,0,0,0-.414-.1h-3.7a.924.924,0,0,0-.414.1l-2.832,1.416a2.773,2.773,0,0,0-1.506,2.089l-.675,4.72h-2.731l.745-4.472a.925.925,0,1,0-1.824-.308v0l-.8,4.777h-1.991v-1.849a.925.925,0,0,0-.925-.925h-3.443l-4.3-2.579a3.666,3.666,0,0,0-2.431-1.12,2.777,2.777,0,0,0-2.775,2.775v11.1a.924.924,0,0,0,.632.878l.292.1v6.424H987.9v1.85H1043.4v-1.85h-.925V649.5l.365-.156a.924.924,0,0,0,.56-.849v-9.249A2.777,2.777,0,0,0,1040.622,636.468Zm-8.325,17.443,2.128,3.829H1032.3Zm0-9.119h2.775a.924.924,0,0,0,.414-.1l2.361-1.181v1.69l-5.55,3.469Zm-21.419-6.308a.924.924,0,0,1,.5-.7l2.637-1.319h3.263l2.638,1.319a.928.928,0,0,1,.5.7l.637,4.459h-1.709v-3.7a.924.924,0,0,0-.925-.925h-5.549a.925.925,0,0,0-.925.925v3.7h-1.708Zm6.621,4.458h-3.7v-2.775h3.7Zm12.949,1.85v1.85h-29.6v-1.85Zm-9.249,3.859v-.159h5.549v9.249h-8.2l.756-6.045,1.084-1.083A2.757,2.757,0,0,0,1021.2,648.651Zm-10.286,1.962L1012,651.7l.756,6.045h-8.2v-9.249h5.549v.159A2.756,2.756,0,0,0,1010.912,650.613ZM999,652.363l-.964-3.212a.92.92,0,0,0-.41-.527l-4.176-2.505v-2.6l2.361,1.181a.924.924,0,0,0,.414.1H999Zm-8.324-.43,2.944.982,1.38,4.826h-4.324Zm6.247,5.807-1.659-5.8a.924.924,0,0,0-.6-.623l-4.917-1.639V639.243a.926.926,0,0,1,.925-.925,1.962,1.962,0,0,1,1.161.616.9.9,0,0,0,.213.177l4.624,2.775a.931.931,0,0,0,.476.132h2.775v.925h-3.482l-3.5-1.752a.926.926,0,0,0-1.339.827v4.625a.925.925,0,0,0,.45.793l4.317,2.591,2.315,7.715Zm3.927,0v-9.249h1.85v9.249Zm13.766,0-.824-6.589a.917.917,0,0,0-.263-.539l-1.308-1.308a.92.92,0,0,1-.272-.654v-.159h7.4v.159a.917.917,0,0,1-.271.654l-1.308,1.308a.921.921,0,0,0-.264.539l-.824,6.589Zm13.982,0v-9.249h1.85v9.249Zm7.943,0-3.933-7.08,6.654-4.159a.925.925,0,0,0,.435-.784v-3.7a.925.925,0,0,0-1.338-.827l-3.5,1.752h-3.482v-.925h2.775a.927.927,0,0,0,.476-.132l4.625-2.775a.9.9,0,0,0,.213-.177,1.948,1.948,0,0,1,1.161-.616.926.926,0,0,1,.925.925v8.64l-5.914,2.535a.925.925,0,0,0-.533,1.074l1.563,6.25Zm4.081,0h-2.053l-1.484-5.935,3.536-1.516Z" transform="translate(-987.902 -608.721)" fill="#3e0c8e"/>
      <path id="Trazado_64" data-name="Trazado 64" d="M1028.079,610.94v2.933a.925.925,0,0,0,1.438.77l3.233-2.155a2.773,2.773,0,0,0,2.728,2.311h3.419l5.317,3.544a.925.925,0,0,0,1.438-.77V614.64a2.78,2.78,0,0,0,1.85-2.616v-5.549a2.779,2.779,0,0,0-2.775-2.775h-3.7v-.925a2.777,2.777,0,0,0-2.775-2.775H1029a2.778,2.778,0,0,0-2.775,2.775v5.549A2.779,2.779,0,0,0,1028.079,610.94Zm16.649-5.391a.926.926,0,0,1,.925.925v5.549a.926.926,0,0,1-.925.925.925.925,0,0,0-.925.925v1.972l-4.111-2.741a.922.922,0,0,0-.513-.156h-3.7a.926.926,0,0,1-.925-.925v-.738l.28-.187h3.42a2.777,2.777,0,0,0,2.775-2.775v-2.775Zm-10.174,3.7v-2.775a.926.926,0,0,1,.925-.925h3.7v2.775a.926.926,0,0,1-.925.925Zm-6.475-6.475a.926.926,0,0,1,.925-.925h9.249a.926.926,0,0,1,.925.925v.925h-3.7a2.778,2.778,0,0,0-2.775,2.775V610.3l-2.775,1.849v-1.971a.925.925,0,0,0-.925-.925.926.926,0,0,1-.925-.925Z" transform="translate(-997.557 -600)" fill="#3e0c8e"/>
      <path id="Trazado_65" data-name="Trazado 65" d="M993.15,614.808v2.775a.924.924,0,0,0,1.438.769l5.317-3.544h4.344a2.777,2.777,0,0,0,2.775-2.775v-5.549a2.777,2.777,0,0,0-2.775-2.775h-11.1a2.777,2.777,0,0,0-2.775,2.775v5.549A2.777,2.777,0,0,0,993.15,614.808Zm-.925-8.324a.926.926,0,0,1,.925-.925h11.1a.926.926,0,0,1,.925.925v5.549a.926.926,0,0,1-.925.925h-4.625a.925.925,0,0,0-.512.155L995,615.854v-1.971a.925.925,0,0,0-.925-.925h-.925a.927.927,0,0,1-.925-.925Z" transform="translate(-988.525 -600.934)" fill="#3e0c8e"/>
      <rect id="Rectángulo_47" data-name="Rectángulo 47" width="1.85" height="1.85" transform="translate(5.55 7.399)" fill="#3e0c8e"/>
      <rect id="Rectángulo_48" data-name="Rectángulo 48" width="1.85" height="1.85" transform="translate(9.249 7.399)" fill="#3e0c8e"/>
      <rect id="Rectángulo_49" data-name="Rectángulo 49" width="1.85" height="1.85" transform="translate(12.949 7.399)" fill="#3e0c8e"/>
      <path id="Trazado_66" data-name="Trazado 66" d="M1023.747,630.89a3.7,3.7,0,1,0-3.7-3.7A3.7,3.7,0,0,0,1023.747,630.89Zm0-5.549a1.85,1.85,0,1,1-1.85,1.849A1.85,1.85,0,0,1,1023.747,625.341Z" transform="translate(-996 -605.918)" fill="#3e0c8e"/>
      <path id="Trazado_67" data-name="Trazado 67" d="M1052.193,629.663a3.7,3.7,0,1,0,3.7-3.7A3.7,3.7,0,0,0,1052.193,629.663Zm3.7-1.85a1.85,1.85,0,1,1-1.849,1.85A1.85,1.85,0,0,1,1055.892,627.813Z" transform="translate(-1004.097 -606.541)" fill="#3e0c8e"/>
      <path id="Trazado_68" data-name="Trazado 68" d="M991.6,633.363a3.7,3.7,0,1,0-3.7-3.7A3.7,3.7,0,0,0,991.6,633.363Zm0-5.55a1.85,1.85,0,1,1-1.849,1.85A1.85,1.85,0,0,1,991.6,627.813Z" transform="translate(-987.902 -606.541)" fill="#3e0c8e"/>
    </g>
  </g>
</svg>
