<svg xmlns="http://www.w3.org/2000/svg" width="98" height="98" viewBox="0 0 98 98">
  <g id="Grupo_188" data-name="Grupo 188" transform="translate(-541 -384)">
    <path id="Trazado_169" data-name="Trazado 169" d="M49,0A49,49,0,1,1,0,49,49,49,0,0,1,49,0Z" transform="translate(541 384)" fill="#ded8e8"/>
    <g id="Grupo_60" data-name="Grupo 60" transform="translate(564.939 408.687)">
      <g id="Grupo_59" data-name="Grupo 59">
        <path id="Trazado_69" data-name="Trazado 69" d="M1108.65,623.544a6.049,6.049,0,1,0-6.05-6.05A6.024,6.024,0,0,0,1108.65,623.544Zm0-10.531a4.527,4.527,0,0,1,4.556,4.556,4.574,4.574,0,0,1-4.556,4.556,4.556,4.556,0,1,1,0-9.112Z" transform="translate(-1098.343 -604.499)" fill="#3e0c8e"/>
        <path id="Trazado_70" data-name="Trazado 70" d="M1099.1,641.015h17.028a1.149,1.149,0,0,0,1.121-1.12v-5a5.992,5.992,0,0,0-5.975-5.975h-7.393a5.992,5.992,0,0,0-5.975,5.975v5A1.276,1.276,0,0,0,1099.1,641.015Zm.373-6.124a4.494,4.494,0,0,1,4.481-4.481h7.394a4.494,4.494,0,0,1,4.481,4.481v4.63h-16.356Z" transform="translate(-1097.161 -608.9)" fill="#3e0c8e"/>
        <path id="Trazado_71" data-name="Trazado 71" d="M1103.183,655.828a3.616,3.616,0,0,0,2.987-3.585,3.66,3.66,0,1,0-4.257,3.585,5.708,5.708,0,0,0-5,5.6v.6a1.149,1.149,0,0,0,1.12,1.121h9.112a1.149,1.149,0,0,0,1.12-1.121v-.6A5.775,5.775,0,0,0,1103.183,655.828Zm-2.913-3.585a2.166,2.166,0,1,1,2.166,2.166A2.167,2.167,0,0,1,1100.27,652.243Zm6.5,9.41H1098.4v-.224a4.183,4.183,0,1,1,8.365,0v.224Z" transform="translate(-1096.909 -613.854)" fill="#3e0c8e"/>
        <path id="Trazado_72" data-name="Trazado 72" d="M1120.18,655.828a3.616,3.616,0,0,0,2.988-3.585,3.66,3.66,0,1,0-4.257,3.585,5.649,5.649,0,0,0-4.929,5.6v.6a1.149,1.149,0,0,0,1.121,1.12h9.112a1.149,1.149,0,0,0,1.12-1.12v-.6A5.979,5.979,0,0,0,1120.18,655.828Zm-2.912-3.585a2.166,2.166,0,1,1,2.166,2.166A2.167,2.167,0,0,1,1117.267,652.243Zm6.423,9.41h-8.365v-.224a4.183,4.183,0,0,1,8.365,0v.224Z" transform="translate(-1101.21 -613.854)" fill="#3e0c8e"/>
        <path id="Trazado_73" data-name="Trazado 73" d="M1137.052,655.828a3.616,3.616,0,0,0,2.988-3.585,3.66,3.66,0,1,0-4.257,3.585,5.649,5.649,0,0,0-4.929,5.6v.6a1.149,1.149,0,0,0,1.121,1.121h9.112a1.149,1.149,0,0,0,1.12-1.121v-.6A5.91,5.91,0,0,0,1137.052,655.828Zm-2.912-3.585a2.166,2.166,0,1,1,2.166,2.166A2.168,2.168,0,0,1,1134.139,652.243Zm6.5,9.41h-8.365v-.224a4.183,4.183,0,0,1,8.365,0v.224Z" transform="translate(-1105.46 -613.854)" fill="#3e0c8e"/>
        <path id="Trazado_74" data-name="Trazado 74" d="M1154.024,655.828a3.616,3.616,0,0,0,2.988-3.585,3.66,3.66,0,1,0-4.257,3.585,5.649,5.649,0,0,0-4.929,5.6v.6a1.149,1.149,0,0,0,1.121,1.121h9.111a1.149,1.149,0,0,0,1.121-1.121v-.6A5.979,5.979,0,0,0,1154.024,655.828Zm-2.912-3.585a2.166,2.166,0,1,1,2.166,2.166A2.167,2.167,0,0,1,1151.111,652.243Zm6.423,9.41h-8.365v-.224a4.183,4.183,0,0,1,8.365,0v.224Z" transform="translate(-1109.735 -613.854)" fill="#3e0c8e"/>
        <path id="Trazado_75" data-name="Trazado 75" d="M1140.159,641.56v-.6a5.6,5.6,0,0,0-5-5.6,3.616,3.616,0,0,0,2.987-3.585,3.66,3.66,0,1,0-4.257,3.585,5.65,5.65,0,0,0-4.93,5.6v.6a1.149,1.149,0,0,0,1.121,1.121h9.112A1.136,1.136,0,0,0,1140.159,641.56Zm-7.917-9.784a2.166,2.166,0,1,1,2.166,2.166A2.168,2.168,0,0,1,1132.242,631.777Zm6.423,9.41H1130.3v-.224a4.183,4.183,0,1,1,8.365,0v.224Z" transform="translate(-1104.982 -608.699)" fill="#3e0c8e"/>
        <path id="Trazado_76" data-name="Trazado 76" d="M1157.032,641.56v-.6a5.6,5.6,0,0,0-5-5.6,3.616,3.616,0,0,0,2.987-3.585,3.66,3.66,0,1,0-4.257,3.585,5.649,5.649,0,0,0-4.929,5.6v.6a1.148,1.148,0,0,0,1.12,1.121h9.112A1.077,1.077,0,0,0,1157.032,641.56Zm-7.917-9.784a2.166,2.166,0,1,1,2.166,2.166A2.168,2.168,0,0,1,1149.115,631.777Zm6.5,9.41h-8.365v-.224a4.183,4.183,0,0,1,8.365,0v.224Z" transform="translate(-1109.232 -608.699)" fill="#3e0c8e"/>
        <path id="Trazado_77" data-name="Trazado 77" d="M1122.164,617.545l6.05-1.046v1.718a1.818,1.818,0,0,0,1.792,1.792h19.941a1.818,1.818,0,0,0,1.792-1.792V603.952a2,2,0,0,0-1.867-1.792h-19.941a1.817,1.817,0,0,0-1.792,1.792V610.3l-6.647,5.975a.793.793,0,0,0-.15.9A.81.81,0,0,0,1122.164,617.545Zm7.245-6.348a.806.806,0,0,0,.224-.523v-6.722c.074-.15.149-.3.3-.3H1149.8a.273.273,0,0,1,.3.3v14.339a.321.321,0,0,1-.3.3h-19.866a.321.321,0,0,1-.3-.3V615.6a.753.753,0,0,0-.9-.747l-4.332.747Z" transform="translate(-1103.045 -602.16)" fill="#3e0c8e"/>
        <path id="Trazado_78" data-name="Trazado 78" d="M1136.792,609.844h14.564a.747.747,0,0,0,0-1.494h-14.564a.705.705,0,0,0-.746.747A.749.749,0,0,0,1136.792,609.844Z" transform="translate(-1106.768 -603.719)" fill="#3e0c8e"/>
        <path id="Trazado_79" data-name="Trazado 79" d="M1136.792,614.636h14.564a.747.747,0,0,0,0-1.494h-14.564a.705.705,0,0,0-.746.747A.749.749,0,0,0,1136.792,614.636Z" transform="translate(-1106.768 -604.926)" fill="#3e0c8e"/>
        <path id="Trazado_80" data-name="Trazado 80" d="M1136.792,619.428h14.564a.747.747,0,0,0,0-1.494h-14.564a.705.705,0,0,0-.746.747A.749.749,0,0,0,1136.792,619.428Z" transform="translate(-1106.768 -606.134)" fill="#3e0c8e"/>
      </g>
    </g>
  </g>
</svg>
