<svg xmlns="http://www.w3.org/2000/svg" width="98" height="98" viewBox="0 0 98 98">
  <g id="Grupo_147" data-name="Grupo 147" transform="translate(-1026 -434)">
    <path id="Trazado_170" data-name="Trazado 170" d="M49,0A49,49,0,1,1,0,49,49,49,0,0,1,49,0Z" transform="translate(1026 434)" fill="#ded8e8"/>
    <path id="Trazado_62" data-name="Trazado 62" d="M1039.5,422.134a1.024,1.024,0,0,0-1.025,1.025v12.719h-8.456V420.169h0V418.2h9.481a1.025,1.025,0,0,0,0-2.049H1029a1.025,1.025,0,0,0-1.025,1.025v.518l-6.523-6.523a3.488,3.488,0,0,0-3.684-.8,10.833,10.833,0,0,0-2.327-17.335,1.024,1.024,0,0,0-1.515.9v9.119h-7.34v-9.119a1.024,1.024,0,0,0-1.515-.9,10.834,10.834,0,0,0-1.795,17.814v2.669h-1.851a3.488,3.488,0,0,0-3.485,3.484v.049a3.471,3.471,0,0,0,1.02,2.46,3.471,3.471,0,0,0-1.02,2.46v.05a3.471,3.471,0,0,0,1.02,2.46,3.469,3.469,0,0,0-1.02,2.459v.05a3.471,3.471,0,0,0,1.02,2.46,3.47,3.47,0,0,0-1.02,2.46v.049a3.488,3.488,0,0,0,3.485,3.484h2.016a6.933,6.933,0,0,0,6.755,5.41h.119a6.93,6.93,0,0,0,6.752-5.41h8.178a1.024,1.024,0,0,0,0-2.048h-8.01v-8.454a1.025,1.025,0,0,0-2.049,0v8.993a4.877,4.877,0,0,1-4.872,4.871h-.119a4.882,4.882,0,0,1-4.632-3.361h1.612a3.488,3.488,0,0,0,3.484-3.484v-.049a3.474,3.474,0,0,0-1.019-2.46,3.474,3.474,0,0,0,1.019-2.46v-.05a3.472,3.472,0,0,0-1.019-2.459,3.474,3.474,0,0,0,1.019-2.46v-.05a3.474,3.474,0,0,0-1.019-2.46,3.473,3.473,0,0,0,1.019-2.46v-.049a3.488,3.488,0,0,0-3.484-3.484h-1.851v-3.161a1.025,1.025,0,0,0-.4-.813,8.783,8.783,0,0,1-.387-13.666v8.2a1.024,1.024,0,0,0,1.025,1.024h9.389a1.024,1.024,0,0,0,1.025-1.024v-8.2a8.783,8.783,0,0,1-.387,13.666,1.025,1.025,0,0,0-.4.813v2.149l-2.728,2.728a3.484,3.484,0,0,0,0,4.927l.035.035a3.488,3.488,0,0,0,4.927,0l2.04-2.039a1.025,1.025,0,1,0-1.449-1.449l-2.039,2.039a1.435,1.435,0,0,1-2.03,0l-.035-.035a1.435,1.435,0,0,1,0-2.03l4.067-4.066a1.435,1.435,0,0,1,2.028,0h0l7.972,7.972V436.9a1.024,1.024,0,0,0,1.025,1.024H1039.5a1.024,1.024,0,0,0,1.024-1.024V423.159A1.024,1.024,0,0,0,1039.5,422.134Zm-30.895-.16v.049a1.437,1.437,0,0,1-1.435,1.436h-5.751a1.437,1.437,0,0,1-1.436-1.436v-.049a1.437,1.437,0,0,1,1.436-1.436h5.751A1.437,1.437,0,0,1,1008.606,421.974Zm0,4.969v.05a1.436,1.436,0,0,1-1.435,1.435h-5.751a1.437,1.437,0,0,1-1.436-1.435v-.05a1.437,1.437,0,0,1,1.436-1.435h5.751A1.436,1.436,0,0,1,1008.606,426.943Zm0,5.019a1.437,1.437,0,0,1-1.435,1.436h-5.751a1.437,1.437,0,0,1-1.436-1.436v-.05a1.437,1.437,0,0,1,1.436-1.435h5.751a1.437,1.437,0,0,1,1.436,1.435v.05Zm0-14.957v.049a1.437,1.437,0,0,1-1.435,1.436h-5.751a1.437,1.437,0,0,1-1.436-1.436v-.049a1.437,1.437,0,0,1,1.436-1.436h5.751A1.437,1.437,0,0,1,1008.606,417.006Z" transform="translate(55.743 65.773)" fill="#3e0c8e"/>
  </g>
</svg>
