<svg xmlns="http://www.w3.org/2000/svg" width="593.567" height="473.517" viewBox="0 0 593.567 473.517">
  <g id="Grupo_9" data-name="Grupo 9" transform="translate(-765.656 -180.43)" opacity="0.677">
    <path id="Polígono_16" data-name="Polígono 16" d="M53.988,0l53.988,92.942H0Z" transform="translate(1040.699 199.791) rotate(48)" fill="#4f00b1" opacity="0.083"/>
    <path id="Polígono_20" data-name="Polígono 20" d="M53.988,0l53.988,92.942H0Z" transform="translate(1084.181 634.585) rotate(-132)" fill="#4f00b1" opacity="0.083"/>
    <path id="Polígono_13" data-name="Polígono 13" d="M69.706,0l69.706,120.278H0Z" transform="translate(910.429 412.052) rotate(49)" fill="#4f00b1" opacity="0.083"/>
    <path id="Polígono_17" data-name="Polígono 17" d="M69.706,0l69.706,120.278H0Z" transform="translate(1214.452 422.324) rotate(-131)" fill="#4f00b1" opacity="0.083"/>
    <path id="Polígono_15" data-name="Polígono 15" d="M53.988,0l53.988,92.942H0Z" transform="matrix(-0.996, -0.087, 0.087, -0.996, 915.114, 396.168)" fill="#4f00b1" opacity="0.083"/>
    <path id="Polígono_19" data-name="Polígono 19" d="M53.988,0l53.988,92.942H0Z" transform="translate(1209.766 438.208) rotate(5)" fill="#4f00b1" opacity="0.083"/>
    <path id="Polígono_14" data-name="Polígono 14" d="M34.853,0,69.706,60.139H0Z" transform="matrix(-0.839, -0.545, 0.545, -0.839, 950.511, 441.195)" fill="#4f00b1" opacity="0.083"/>
    <path id="Polígono_18" data-name="Polígono 18" d="M34.853,0,69.706,60.139H0Z" transform="matrix(0.839, 0.545, -0.545, 0.839, 1174.37, 393.181)" fill="#4f00b1" opacity="0.083"/>
    <ellipse id="Elipse_16" data-name="Elipse 16" cx="23.235" cy="23.235" rx="23.235" ry="23.235" transform="matrix(0.839, 0.545, -0.545, 0.839, 790.966, 383.218)" fill="#4f00b1" opacity="0.083"/>
    <ellipse id="Elipse_19" data-name="Elipse 19" cx="23.235" cy="23.235" rx="23.235" ry="23.235" transform="matrix(-0.839, -0.545, 0.545, -0.839, 1333.914, 451.159)" fill="#4f00b1" opacity="0.083"/>
    <ellipse id="Elipse_14" data-name="Elipse 14" cx="23.235" cy="23.235" rx="23.235" ry="23.235" transform="matrix(0.839, 0.545, -0.545, 0.839, 1024.188, 420.594)" fill="#4f00b1" opacity="0.083"/>
    <ellipse id="Elipse_17" data-name="Elipse 17" cx="23.235" cy="23.235" rx="23.235" ry="23.235" transform="matrix(-0.839, -0.545, 0.545, -0.839, 1100.692, 413.782)" fill="#4f00b1" opacity="0.083"/>
    <ellipse id="Elipse_15" data-name="Elipse 15" cx="23.235" cy="23.235" rx="23.235" ry="23.235" transform="matrix(0.839, 0.545, -0.545, 0.839, 945.474, 180.43)" fill="#4f00b1" opacity="0.083"/>
    <ellipse id="Elipse_18" data-name="Elipse 18" cx="23.235" cy="23.235" rx="23.235" ry="23.235" transform="matrix(-0.839, -0.545, 0.545, -0.839, 1179.406, 653.947)" fill="#4f00b1" opacity="0.083"/>
  </g>
</svg>
