<svg xmlns="http://www.w3.org/2000/svg" width="113" height="113" viewBox="0 0 113 113">
  <g id="Grupo_153" data-name="Grupo 153" transform="translate(-641 -1935)">
    <path id="Trazado_172" data-name="Trazado 172" d="M56.5,0A56.5,56.5,0,1,1,0,56.5,56.5,56.5,0,0,1,56.5,0Z" transform="translate(641 1935)" fill="#a88bd8"/>
    <g id="_032---Improved-Mental-Health" data-name="032---Improved-Mental-Health" transform="translate(671 1965)">
      <path id="Shape" d="M276.252,233.285l-4.752,6.337-1.061-1.061a.9.9,0,0,0-1.266,1.266c1.952,1.951,1.941,2.052,2.424,2.052a.9.9,0,0,0,.716-.358l5.372-7.162a.9.9,0,1,0-1.433-1.074Z" transform="translate(-230.408 -226.662)" fill="#3e0c8e"/>
      <path id="Shape-2" data-name="Shape" d="M262.731,227.934c-6.158-2.914-11.542-2.163-18.589-.725-4.029.806-6.952,2.222-8.946,4.337a17.162,17.162,0,0,0-3.591,5.859,24.17,24.17,0,0,0-.822,3.015c-.467,2.059-1.777,3.615-1.578,5,.222,1.558,2.026,2.277,2.023,2.943a34.066,34.066,0,0,1-4.052,6.738c-1.791,2.185-1.449,3.157.1,4.312.632.471,1.943.939,2.011,1.3a2.267,2.267,0,0,1-.491,1.644c-.914,1.627-.466,1.938.781,2.9a1.612,1.612,0,0,0,.241,2.172c.632.452,1.314.66,1.425,1.1.212.836-.755,1.841.067,4.2a3.307,3.307,0,0,0,3.892,2.364,72.116,72.116,0,0,0,7.538-2.261c1.96,1.157,3.12,4.514,3.441,5.556a1.761,1.761,0,0,0,1.708,1.231h20.247a1.811,1.811,0,0,0,1.495-2.8c-1.662-2.529-2.339-5.909-2.7-8.909a15.221,15.221,0,0,1,1.164-7.859c1.9-4.315,6.313-6.548,6.224-14.087a10.732,10.732,0,1,0-11.588-18.039Zm3.73,31.41a17.024,17.024,0,0,0-1.3,8.791c.828,6.821,2.512,8.7,2.984,9.718H247.9a13.926,13.926,0,0,0-3.148-5.708c.242-.084,1.833-.642,2.086-.724,3.824-1.212,5.736-2.954,5.683-5.192a.9.9,0,0,0-1.791.042c.022.922-.73,2.267-4.434,3.441-1.546.49-8.029,2.926-11.454,3.631a1.583,1.583,0,0,1-1.836-1.2c-.689-1.982.39-2.417-.022-4.052-.263-1.045-1-1.448-1.842-1.943.264-.554.6-.7.527-1.223-.066-.5-.343-.561-1.444-1.441a4.249,4.249,0,0,0,.828-3.1c-.276-1.467-2.014-1.894-2.756-2.447a4.255,4.255,0,0,1-.532-.434c0-.136.145-.466.827-1.3a35.263,35.263,0,0,0,4.081-6.653,2.554,2.554,0,0,0,.347-1.219,3.154,3.154,0,0,0-1.3-2.231c-.9-.836-.829-.941-.6-1.556a26.728,26.728,0,0,0,1.358-3.5,25.615,25.615,0,0,1,.806-3.02,15.363,15.363,0,0,1,3.215-5.25c1.705-1.81,4.394-3.093,8-3.81,6.219-1.268,11.259-2.078,16.743.252A10.787,10.787,0,0,0,259.292,232c-11.5-5-23.471,2.966-23.471,11.4,0,7.544,8.626,8.5,16.106,8.5a2.694,2.694,0,0,1,2.7,2.686,4.029,4.029,0,0,0,8.057-.09v-1.316a3.6,3.6,0,0,1,2.06-3.229,7.631,7.631,0,0,0,3.143-2.581,10.576,10.576,0,0,0,4.634-.568c-.226,6.165-4.106,8.107-6.055,12.542Zm-.558-12.367a6.58,6.58,0,0,1-1.937,1.355,5.4,5.4,0,0,0-3.077,4.849V254.5a2.279,2.279,0,0,1-1.768,2.275,2.231,2.231,0,0,1-2.708-2.185,4.487,4.487,0,0,0-4.486-4.477c-6.294,0-14.316-.523-14.316-6.714,0-7.24,10.688-14.267,21.03-9.727a10.735,10.735,0,0,0,7.262,13.308Zm3.044-1.343a8.953,8.953,0,1,1,8.953-8.953A8.953,8.953,0,0,1,268.947,245.634Z" transform="translate(-225.969 -225.94)" fill="#3e0c8e"/>
      <path id="Shape-3" data-name="Shape" d="M256.687,239.5H254.9v-1.791a1.791,1.791,0,0,0-1.791-1.791h-1.791a1.791,1.791,0,0,0-1.791,1.791V239.5h-1.791a1.791,1.791,0,0,0-1.791,1.791v1.791a1.791,1.791,0,0,0,1.791,1.791h1.791v1.791a1.791,1.791,0,0,0,1.791,1.791h1.791a1.791,1.791,0,0,0,1.791-1.791v-1.791h1.791a1.79,1.79,0,0,0,1.791-1.791v-1.791A1.79,1.79,0,0,0,256.687,239.5Zm0,3.581h-2.239a1.342,1.342,0,0,0-1.342,1.343v2.238h-1.791v-2.238a1.342,1.342,0,0,0-1.342-1.343h-2.239v-1.791h2.239a1.343,1.343,0,0,0,1.342-1.343v-2.238h1.791v2.238a1.343,1.343,0,0,0,1.342,1.343h2.239Z" transform="translate(-228.033 -226.971)" fill="#3e0c8e"/>
    </g>
  </g>
</svg>
