<svg xmlns="http://www.w3.org/2000/svg" width="113" height="113" viewBox="0 0 113 113">
  <g id="Grupo_154" data-name="Grupo 154" transform="translate(-982 -1935)">
    <circle id="Elipse_4" data-name="Elipse 4" cx="56.5" cy="56.5" r="56.5" transform="translate(982 1935)" fill="#a88bd8"/>
    <g id="Grupo_31" data-name="Grupo 31" transform="translate(1005.453 1961.296)">
      <path id="Trazado_15" data-name="Trazado 15" d="M228.076,250.856a14.449,14.449,0,1,0-14.449,14.45,14.465,14.465,0,0,0,14.449-14.45Zm-14.449,12.539a12.539,12.539,0,1,1,12.539-12.539A12.553,12.553,0,0,1,213.627,263.395Z" transform="translate(-199.177 -221.099)" fill="#3e0c8e"/>
      <path id="Trazado_16" data-name="Trazado 16" d="M211.559,254.458V252.6a.956.956,0,0,0-1.911,0v1.862a.956.956,0,0,0,1.911,0Z" transform="translate(-202.206 -225.507)" fill="#3e0c8e"/>
      <path id="Trazado_17" data-name="Trazado 17" d="M227.636,251.641a.956.956,0,0,0-.956.955v1.862a.956.956,0,0,0,1.911,0V252.6a.955.955,0,0,0-.955-.955Z" transform="translate(-207.134 -225.507)" fill="#3e0c8e"/>
      <path id="Trazado_18" data-name="Trazado 18" d="M222.585,261.1a.956.956,0,0,0-1.325.263,5.042,5.042,0,0,1-8.322.1.956.956,0,0,0-1.564,1.1,6.952,6.952,0,0,0,5.692,2.96h.113a6.959,6.959,0,0,0,5.67-3.091.955.955,0,0,0-.263-1.325Z" transform="translate(-202.655 -228.198)" fill="#3e0c8e"/>
      <path id="Trazado_19" data-name="Trazado 19" d="M272.611,229.318a14.449,14.449,0,1,0-14.449,14.45,14.466,14.466,0,0,0,14.449-14.45Zm-14.449,12.539A12.539,12.539,0,1,1,270.7,229.318,12.553,12.553,0,0,1,258.162,241.857Z" transform="translate(-212.061 -214.868)" fill="#3e0c8e"/>
      <path id="Trazado_20" data-name="Trazado 20" d="M256.094,232.919v-1.861a.956.956,0,1,0-1.911,0v1.861a.956.956,0,1,0,1.911,0Z" transform="translate(-215.091 -219.275)" fill="#3e0c8e"/>
      <path id="Trazado_21" data-name="Trazado 21" d="M272.171,230.1a.956.956,0,0,0-.956.956v1.861a.956.956,0,1,0,1.911,0v-1.861a.956.956,0,0,0-.955-.956Z" transform="translate(-220.018 -219.275)" fill="#3e0c8e"/>
      <path id="Trazado_22" data-name="Trazado 22" d="M267.12,239.565a.955.955,0,0,0-1.325.263,5.042,5.042,0,0,1-8.322.1.956.956,0,0,0-1.564,1.1,6.951,6.951,0,0,0,5.692,2.961h.113a6.957,6.957,0,0,0,5.67-3.09.955.955,0,0,0-.263-1.325Z" transform="translate(-215.54 -221.966)" fill="#3e0c8e"/>
      <path id="Trazado_23" data-name="Trazado 23" d="M272.611,274.4a14.449,14.449,0,1,0-14.449,14.45,14.466,14.466,0,0,0,14.449-14.45Zm-14.449,12.539A12.539,12.539,0,1,1,270.7,274.4,12.553,12.553,0,0,1,258.162,286.936Z" transform="translate(-212.061 -227.91)" fill="#3e0c8e"/>
      <path id="Trazado_24" data-name="Trazado 24" d="M256.094,278v-1.861a.956.956,0,1,0-1.911,0V278a.956.956,0,0,0,1.911,0Z" transform="translate(-215.091 -232.317)" fill="#3e0c8e"/>
      <path id="Trazado_25" data-name="Trazado 25" d="M272.171,275.181a.956.956,0,0,0-.956.956V278a.956.956,0,0,0,1.911,0v-1.861a.956.956,0,0,0-.955-.956Z" transform="translate(-220.018 -232.317)" fill="#3e0c8e"/>
      <path id="Trazado_26" data-name="Trazado 26" d="M267.12,284.643a.956.956,0,0,0-1.325.264,5.042,5.042,0,0,1-8.322.095.956.956,0,0,0-1.564,1.1,6.952,6.952,0,0,0,5.692,2.96h.113a6.955,6.955,0,0,0,5.67-3.091.955.955,0,0,0-.263-1.325Z" transform="translate(-215.54 -235.008)" fill="#3e0c8e"/>
    </g>
  </g>
</svg>
