<svg xmlns="http://www.w3.org/2000/svg" width="93" height="93" viewBox="0 0 93 93">
  <g id="Grupo_189" data-name="Grupo 189" transform="translate(-381 -635)">
    <circle id="Elipse_35" data-name="Elipse 35" cx="46.5" cy="46.5" r="46.5" transform="translate(381 635)" fill="#f7f6f9" opacity="0.69"/>
    <g id="Grupo_33" data-name="Grupo 33" transform="translate(402 655)">
      <path id="Trazado_27" data-name="Trazado 27" d="M263.837,207.8l-.522-1.562a6.063,6.063,0,0,0-3.816,3.816l1.562.521A4.416,4.416,0,0,1,263.837,207.8Z" transform="translate(-233.093 -193.014)" fill="#3e0c8e"/>
      <path id="Trazado_28" data-name="Trazado 28" d="M202.236,164.337a1.649,1.649,0,0,0,1.648-1.648v-1.648a1.649,1.649,0,0,0-1.648-1.648H197.8a3.236,3.236,0,0,0-4.314,0h-6.233a2.444,2.444,0,0,0,.151-.824v-1.648a2.464,2.464,0,0,0-3.391-2.291,2.45,2.45,0,0,0-4.024-1.186,2.434,2.434,0,0,0-3.3,0,2.461,2.461,0,0,0-4.119,1.829v2.472a3.284,3.284,0,0,0-2.837,1.648H163.2a3.236,3.236,0,0,0-4.314,0h-4.434a1.649,1.649,0,0,0-1.648,1.648v1.648a1.649,1.649,0,0,0,1.648,1.648h4.434a3.405,3.405,0,0,0,.3.251l-6.386,13.57v1.009a8.239,8.239,0,0,0,16.478,0v-1.009l-6.386-13.571a3.278,3.278,0,0,0,.3-.251h6.082v1.648a13.269,13.269,0,0,0,2.094,7.119,1.641,1.641,0,0,0-.446,1.12v9.224l-2.491,2.491,1.2,1.2a1.6,1.6,0,0,1,.324,1.764,1.576,1.576,0,0,1-1.459.975h-1.693v4.943H168.5a1.615,1.615,0,0,1,1.134,2.739l-1.2,1.2,3.5,3.5,1.2-1.2a1.614,1.614,0,0,1,2.738,1.134v1.693h4.943v-1.693a1.615,1.615,0,0,1,2.739-1.135l1.2,1.2,3.5-3.5-1.2-1.2a1.6,1.6,0,0,1-.324-1.764,1.575,1.575,0,0,1,1.458-.975h1.693v-4.943h-1.693a1.615,1.615,0,0,1-1.135-2.739l1.2-1.2-2.491-2.491v-9.224a1.638,1.638,0,0,0-.446-1.12,13.268,13.268,0,0,0,2.094-7.119v-1.648h6.082a3.405,3.405,0,0,0,.3.251l-6.386,13.57v1.009a8.239,8.239,0,0,0,16.478,0v-1.009L197.5,164.588a3.278,3.278,0,0,0,.3-.251h4.434Zm-41.194-4.119a1.648,1.648,0,1,1-1.648,1.648A1.649,1.649,0,0,1,161.042,160.218Zm-6.591.824h3.412a2.964,2.964,0,0,0,0,1.648h-3.412Zm6.591,24.717a6.6,6.6,0,0,1-6.591-6.591h13.182A6.6,6.6,0,0,1,161.042,185.758Zm6.117-8.239H154.925l5.83-12.387c.1.008.189.029.287.029s.191-.021.287-.029Zm-2.938-14.83a2.958,2.958,0,0,0,0-1.648h5.06v1.648Zm38.016,0h-3.412a2.964,2.964,0,0,0,0-1.648h3.412Zm-6.591-2.471A1.648,1.648,0,1,1,194,161.866,1.649,1.649,0,0,1,195.645,160.218Zm-3.179,2.471H180.715a3.972,3.972,0,0,0,1.378-1.648h10.373a2.958,2.958,0,0,0,0,1.648Zm-7.532-6.591a.824.824,0,0,1,.824.824v1.648a.824.824,0,1,1-1.648,0v-1.648A.824.824,0,0,1,184.934,156.1Zm-3.3-1.648a.824.824,0,0,1,.824.824v3.3a.811.811,0,0,1-.08.343,1.645,1.645,0,0,0-1.568-1.167v-2.472A.824.824,0,0,1,181.639,154.451Zm-3.3,0a.824.824,0,0,1,.824.824v2.472h-1.648v-2.472A.824.824,0,0,1,178.343,154.451Zm-4.12.824a.824.824,0,0,1,1.648,0v2.472h-1.648Zm9.887,18.949v8.862l-.557.557a1.591,1.591,0,0,1-1.764.323,1.573,1.573,0,0,1-.975-1.457v-1.693h-4.943v1.693a1.616,1.616,0,0,1-2.739,1.134l-.556-.557v-8.862Zm1.093,15.308a3.216,3.216,0,0,0,2.981,1.994h.045v1.648h-.045a3.262,3.262,0,0,0-2.3,5.551l.035.035-1.167,1.167-.035-.035a3.262,3.262,0,0,0-5.551,2.3v.045h-1.648v-.045a3.262,3.262,0,0,0-5.551-2.3l-.035.035-1.167-1.167.035-.035a3.262,3.262,0,0,0-2.3-5.551h-.045v-1.648h.045a3.262,3.262,0,0,0,2.3-5.551l-.035-.035,1.167-1.167.035.035a3.262,3.262,0,0,0,5.551-2.3v-.045h1.648v.045a3.262,3.262,0,0,0,5.551,2.3l.035-.035,1.167,1.167-.035.035A3.231,3.231,0,0,0,185.2,189.532Zm.554-23.547a11.608,11.608,0,0,1-2.079,6.591H173.008a11.608,11.608,0,0,1-2.079-6.591v-4.943a1.649,1.649,0,0,1,1.648-1.648h8.239a2.34,2.34,0,0,1-1.773,2.272L173.714,163l.648.973a8.961,8.961,0,0,1,1.509,4.984v.325h1.648v-.325a10.585,10.585,0,0,0-1.07-4.618h9.309Zm9.887,19.773a6.6,6.6,0,0,1-6.591-6.591h13.182A6.6,6.6,0,0,1,195.645,185.758Zm6.117-8.239H189.529l5.83-12.387c.1.008.189.029.287.029s.191-.021.287-.029Z" transform="translate(-152.803 -152.803)" fill="#3e0c8e"/>
      <path id="Trazado_29" data-name="Trazado 29" d="M238.464,289.289a5.767,5.767,0,1,0,5.767,5.767A5.775,5.775,0,0,0,238.464,289.289Zm0,9.887a4.119,4.119,0,1,1,4.12-4.119A4.124,4.124,0,0,1,238.464,299.176Z" transform="translate(-212.924 -255.51)" fill="#3e0c8e"/>
    </g>
  </g>
</svg>
