<svg xmlns="http://www.w3.org/2000/svg" width="94" height="94" viewBox="0 0 94 94">
  <g id="Grupo_155" data-name="Grupo 155" transform="translate(-151 -253)">
    <circle id="Elipse_37" data-name="Elipse 37" cx="47" cy="47" r="47" transform="translate(151 253)" fill="#f4f2f6" opacity="0.69"/>
    <g id="Page-1" transform="translate(172.752 275)">
      <g id="_001---Degree" data-name="001---Degree">
        <path id="Shape" d="M291.262,250.5l-23.5-8.4a1.722,1.722,0,0,0-1.148,0l-23.5,8.4a1.679,1.679,0,0,0,0,3.16l11.478,4.1V263c0,3.264,11.307,3.358,12.6,3.358s12.6-.094,12.6-3.358v-5.236l2.519-.894V258.8a1.68,1.68,0,0,0,1.679,1.681h1.681a1.68,1.68,0,0,0,1.679-1.681v-2.519a2.47,2.47,0,0,0-.273-1.117l4.2-1.5a1.679,1.679,0,0,0,0-3.16ZM278.1,261.149c-3.2-1.456-9.938-1.511-10.917-1.511s-7.718.056-10.917,1.511v-7.314c.5-.648,4.464-1.754,10.917-1.754s10.413,1.107,10.917,1.754Zm-10.917,3.527c-6.213,0-10.116-1.026-10.845-1.679.729-.653,4.633-1.681,10.845-1.681S277.3,262.344,278.033,263C277.3,263.65,273.4,264.676,267.188,264.676Zm15.509-9.736-2.913,1.038v-2.219c0-3.264-11.307-3.358-12.6-3.358s-12.6.094-12.6,3.358v2.219l-10.917-3.9,23.525-8.4,16.781,6v4.234A2.529,2.529,0,0,0,282.7,254.939Zm2.965,3.858h-1.681v-2.519a.84.84,0,0,1,1.681,0Zm0-4.916v-3.6l5.038,1.8Z" transform="translate(-241.997 -242.004)" fill="#3e0c8e"/>
        <path id="Shape-2" data-name="Shape" d="M289.863,256.471a.854.854,0,0,0-.151.013,153.031,153.031,0,0,1-45.042,0,1.074,1.074,0,0,0-.151-.013c-.588,0-2.519.666-2.519,9.236s1.931,9.236,2.519,9.236a.859.859,0,0,0,.151-.014,131.091,131.091,0,0,1,17.3-1.576l-1.639,3.932a1.671,1.671,0,0,0,2.219,2.154l.642-.273.279.639a1.669,1.669,0,0,0,1.544,1.019h.022a1.675,1.675,0,0,0,1.539-1.047l1.459-3.493,1.452,3.478a1.681,1.681,0,0,0,1.546,1.062h.025a1.668,1.668,0,0,0,1.538-1.008l.279-.644.633.272a1.674,1.674,0,0,0,2.224-2.166l-1.607-3.854a128.344,128.344,0,0,1,15.6,1.512.661.661,0,0,0,.146.011c.588,0,2.519-.666,2.519-9.236s-1.931-9.236-2.519-9.236ZM269.878,259.8a17.7,17.7,0,0,1,.606,3.928,5.827,5.827,0,0,0-5.846.543,22.6,22.6,0,0,0-.576-4.477q1.525.032,3.129.031C268.109,259.829,269,259.82,269.878,259.8Zm-1.846,13.461a4.2,4.2,0,1,1,4.2-4.2A4.2,4.2,0,0,1,268.032,273.264Zm-23.512-14.7a30.737,30.737,0,0,1,0,14.276,30.738,30.738,0,0,1,0-14.276Zm1.7,14.418a32.611,32.611,0,0,0,0-14.562,147.329,147.329,0,0,0,16.094,1.33,21.631,21.631,0,0,1,.686,5.952c0,.122,0,.237-.005.354a5.815,5.815,0,0,0-.27,5.5l-.038.088a146.115,146.115,0,0,0-16.464,1.337Zm18.8,6.156-.614-1.411a.838.838,0,0,0-1.1-.437l-1.414.624,1.969-4.72a5.879,5.879,0,0,0,2.967,1.619Zm7.748-1.848a.84.84,0,0,0-1.1.437l-.621,1.4-1.8-4.311a5.866,5.866,0,0,0,2.969-1.621l1.965,4.7Zm16.934-4.072a135.8,135.8,0,0,0-16.292-1.511l-.059-.144a5.844,5.844,0,0,0-1.132-6.623,23.3,23.3,0,0,0-.6-5.173,139.912,139.912,0,0,0,18.082-1.58c.389.662,1.008,3.278,1.008,7.516s-.622,6.854-1.008,7.516Z" transform="translate(-242 -230.44)" fill="#3e0c8e"/>
      </g>
    </g>
  </g>
</svg>
