<svg xmlns="http://www.w3.org/2000/svg" width="93" height="93" viewBox="0 0 93 93">
  <g id="Grupo_156" data-name="Grupo 156" transform="translate(-736 -635)">
    <circle id="Elipse_34" data-name="Elipse 34" cx="46.5" cy="46.5" r="46.5" transform="translate(736 635)" fill="#f7f6f9" opacity="0.69"/>
    <g id="Page-1" transform="translate(752.909 659)">
      <g id="_009---Gender-Equality-Flag" data-name="009---Gender-Equality-Flag" transform="translate(0 0)">
        <path id="Shape" d="M260.011,223.292v5.1s-3.938-4.922-14.766-4.922-16.736,5.907-26.58,5.907a26.07,26.07,0,0,1-15.751-4.922v-4.026a.985.985,0,0,1,1.487-.846,27.409,27.409,0,0,0,14.264,3.888c9.844,0,15.751-5.906,26.58-5.906,8.348,0,12.6,2.924,14.107,4.262A1.953,1.953,0,0,1,260.011,223.292Z" transform="translate(-201.93 -216.578)" fill="#f64747"/>
        <path id="Shape-2" data-name="Shape" d="M260.011,233.467v5.906s-3.938-4.922-14.766-4.922a32.22,32.22,0,0,0-10.317,1.791,7.74,7.74,0,0,0-3.465-.807,7.857,7.857,0,0,0-6.98,4.233,25.321,25.321,0,0,1-5.818.689,26.063,26.063,0,0,1-15.751-4.922V229.53a26.07,26.07,0,0,0,15.751,4.922c9.844,0,15.751-5.907,26.58-5.907S260.011,233.467,260.011,233.467Z" transform="translate(-201.93 -221.654)" fill="#f8a11f"/>
        <path id="Shape-3" data-name="Shape" d="M287.527,244.451v5.907s-3.938-4.922-14.766-4.922a29.342,29.342,0,0,0-6.241.67,7.851,7.851,0,0,0-4.075-4.785,32.219,32.219,0,0,1,10.317-1.791C283.589,239.529,287.527,244.451,287.527,244.451Z" transform="translate(-229.446 -226.731)" fill="#fce403"/>
        <path id="Shape-4" data-name="Shape" d="M290.488,255.434v5.906s-3.938-4.922-14.766-4.922a29.168,29.168,0,0,0-6.872.817,7.889,7.889,0,0,0,.63-6.054,29.341,29.341,0,0,1,6.241-.67C286.55,250.512,290.488,255.434,290.488,255.434Z" transform="translate(-232.407 -231.808)" fill="#00822d"/>
        <path id="Shape-5" data-name="Shape" d="M260.011,266.417v5.906s-3.938-4.922-14.766-4.922-16.736,5.907-26.58,5.907a26.07,26.07,0,0,1-15.751-4.922V262.48a26.066,26.066,0,0,0,15.751,4.922,29,29,0,0,0,9.45-1.732h.01a7.755,7.755,0,0,0,3.337.748,7.848,7.848,0,0,0,6.91-4.1,29.169,29.169,0,0,1,6.872-.817C256.073,261.495,260.011,266.417,260.011,266.417Z" transform="translate(-201.93 -236.885)" fill="#0c2abf"/>
        <path id="Shape-6" data-name="Shape" d="M228.115,261.439a29,29,0,0,1-9.45,1.732,26.066,26.066,0,0,1-15.751-4.922v-5.907a26.063,26.063,0,0,0,15.751,4.922,25.035,25.035,0,0,0,5.286-.571h.01a7.851,7.851,0,0,0,4.154,4.745Z" transform="translate(-201.93 -232.654)" fill="#00822d"/>
        <path id="Shape-7" data-name="Shape" d="M223.587,249.235a7.933,7.933,0,0,0,.364,2.382,25.034,25.034,0,0,1-5.286.571,26.063,26.063,0,0,1-15.751-4.922v-5.906a26.063,26.063,0,0,0,15.751,4.922,25.323,25.323,0,0,0,5.818-.689A7.791,7.791,0,0,0,223.587,249.235Z" transform="translate(-201.93 -227.577)" fill="#fce403"/>
        <path id="Shape-8" data-name="Shape" d="M260.011,277.4v3.731a.985.985,0,0,1-1.546.807c-2.018-1.457-6.153-3.554-13.221-3.554-10.829,0-16.736,5.906-26.58,5.906A26.922,26.922,0,0,1,203.791,280a1.951,1.951,0,0,1-.877-1.634v-4.9a26.07,26.07,0,0,0,15.751,4.922c9.844,0,15.751-5.907,26.58-5.907S260.011,277.4,260.011,277.4Z" transform="translate(-201.93 -241.961)" fill="#650980" opacity="0.71"/>
        <g id="Grupo_32" data-name="Grupo 32">
          <path id="Shape-9" data-name="Shape" d="M244.4,215.732c-5.718,0-10.073,1.585-14.286,3.118-3.941,1.434-7.662,2.789-12.294,2.789a26.308,26.308,0,0,1-13.742-3.741,1.954,1.954,0,0,0-1.98-.044,1.978,1.978,0,0,0-1.013,1.722v32.562a2.954,2.954,0,0,0,1.309,2.455,28.1,28.1,0,0,0,15.426,4.453c4.979,0,9.04-1.476,12.967-2.907,4.053-1.475,8.243-3,13.613-3,6.94,0,10.9,2.11,12.641,3.367a1.969,1.969,0,0,0,3.109-1.6V222.45a2.954,2.954,0,0,0-.984-2.207c-1.534-1.356-6.036-4.511-14.766-4.511ZM221.911,239a23.824,23.824,0,0,1-4.091.362,25.876,25.876,0,0,1-14.772-4.43v-3.544a28.107,28.107,0,0,0,14.772,4.036,25.645,25.645,0,0,0,4.26-.363,8.553,8.553,0,0,0-.168,3.938Zm-18.858-1.7a28.114,28.114,0,0,0,14.766,4.031,25.875,25.875,0,0,0,4.662-.435,8.913,8.913,0,0,0,2.482,3.312,26.093,26.093,0,0,1-21.91-3.37Zm20.673.094a6.891,6.891,0,1,1,6.891,6.891A6.891,6.891,0,0,1,223.726,237.389Zm34.455-.2c-2.161-1.563-6.468-3.734-13.782-3.734a30.114,30.114,0,0,0-5.6.533,8.9,8.9,0,0,0-2.432-3.327,29.828,29.828,0,0,1,8.037-1.144c8.824,0,12.857,3.409,13.782,4.326Zm-18.842-1.3a28.164,28.164,0,0,1,5.06-.464c8.824,0,12.857,3.41,13.782,4.326v3.347c-2.161-1.564-6.468-3.735-13.782-3.735a29.894,29.894,0,0,0-5.27.464,8.536,8.536,0,0,0,.21-3.938Zm18.842-4.606c-2.161-1.563-6.468-3.734-13.782-3.734a32.96,32.96,0,0,0-10.252,1.723,8.827,8.827,0,0,0-11.137,3.6,24.144,24.144,0,0,1-5.19.58,25.874,25.874,0,0,1-14.774-4.43v-3.544a28.1,28.1,0,0,0,14.774,4.036c4.979,0,9.04-1.477,12.967-2.907,4.053-1.475,8.243-3,13.613-3,8.824,0,12.857,3.409,13.782,4.325ZM203.053,243.2a28.1,28.1,0,0,0,14.766,4.03,29.586,29.586,0,0,0,9.4-1.664,8.832,8.832,0,0,0,10.927-3.534,28.1,28.1,0,0,1,6.251-.709c8.824,0,12.857,3.409,13.782,4.325V249c-2.161-1.564-6.468-3.735-13.782-3.735-5.718,0-10.073,1.585-14.286,3.117-3.941,1.434-7.662,2.789-12.294,2.789a25.874,25.874,0,0,1-14.766-4.43Zm14.766-19.6c4.979,0,9.04-1.477,12.967-2.907,4.053-1.475,8.243-3,13.613-3,8.056,0,12.095,2.808,13.456,4.016a.964.964,0,0,1,.326.734v2.922c-2.161-1.568-6.468-3.734-13.782-3.734-5.718,0-10.073,1.585-14.286,3.118-3.941,1.434-7.662,2.789-12.294,2.789a25.875,25.875,0,0,1-14.776-4.43v-3.544A28.3,28.3,0,0,0,217.819,223.607Zm26.58,27.564c-5.718,0-10.073,1.585-14.286,3.118-3.941,1.434-7.662,2.789-12.294,2.789a26.084,26.084,0,0,1-14.328-4.119.984.984,0,0,1-.438-.82v-3.026a28.114,28.114,0,0,0,14.766,4.028c4.979,0,9.04-1.477,12.967-2.907,4.053-1.475,8.243-3,13.613-3,8.824,0,12.857,3.409,13.782,4.325v3.347C255.818,253.2,251.506,251.171,244.4,251.171Z" transform="translate(-201.084 -215.732)" fill="#3e0c8e"/>
          <path id="Shape-10" data-name="Shape" d="M256.51,258.7a.984.984,0,0,0-1.019-.949l-5.3.187a.985.985,0,0,0,.068,1.968l5.3-.187a.984.984,0,0,0,.95-1.019Z" transform="translate(-223.344 -235.155)" fill="#3e0c8e"/>
          <path id="Shape-11" data-name="Shape" d="M250.262,252.4l5.3-.187a.985.985,0,1,0-.068-1.968l-5.3.187a.985.985,0,1,0,.068,1.968Z" transform="translate(-223.344 -231.684)" fill="#3e0c8e"/>
        </g>
      </g>
    </g>
  </g>
</svg>
