<svg xmlns="http://www.w3.org/2000/svg" width="320.356" height="321.197" viewBox="0 0 320.356 321.197">
  <g id="Grupo_190" data-name="Grupo 190" transform="translate(-559.914 -1525.803)">
    <g id="Grupo_143" data-name="Grupo 143" transform="translate(559.914 1525.803)">
      <path id="Trazado_162" data-name="Trazado 162" d="M1568.271,0a160.423,160.423,0,0,0-160.108,160.6h160.108Z" transform="translate(-1408.163)" fill="#ded8e8"/>
      <path id="Trazado_163" data-name="Trazado 163" d="M1708.227,160.6A160.457,160.457,0,0,0,1548.12,0V48.3L1534.983,68.19c-8.036,12.792-8.036,11.428,0,24.219l13.137,22.368V160.6Z" transform="translate(-1387.871)" fill="#a88bd8"/>
      <path id="Trazado_164" data-name="Trazado 164" d="M1657.79,140.158,1638.94,127.7c-12.792-8.036-11.429-8.036-24.219,0l-21.205,12.453h-48.152v160.6a160.423,160.423,0,0,0,160.108-160.6Z" transform="translate(-1385.115 20.441)" fill="#ded8e8"/>
      <path id="Trazado_165" data-name="Trazado 165" d="M1581.407,205.69l-13.136-22.368V137.5H1408.163a160.457,160.457,0,0,0,160.108,160.6v-48.3l13.136-19.885C1589.443,217.117,1589.443,218.481,1581.407,205.69Z" transform="translate(-1408.163 23.099)" fill="#a88bd8"/>
      <path id="Trazado_166" data-name="Trazado 166" d="M1526.268,135.678h-72.322l22.638,14.955c12.792,8.036,11.429,8.036,24.219,0Z" transform="translate(-1400.472 22.792)" fill="#ded8e8"/>
    </g>
    <g id="Grupo_70" data-name="Grupo 70" transform="translate(623.652 1600.655)">
      <path id="Trazado_104" data-name="Trazado 104" d="M1045.6,537.663l-.912-4.623a9.453,9.453,0,0,0-2.609-4.883l-1.6-1.6v-5.44a16.191,16.191,0,0,1,3.53-5.986,2.668,2.668,0,0,0-.165-.928,2.7,2.7,0,0,0,0-5.095,2.672,2.672,0,0,0,.165-.928,2.7,2.7,0,0,0-2.7-2.7H1035.9a2.736,2.736,0,0,0-2.634-4.433l-4.623.912a9.454,9.454,0,0,0-4.883,2.61l-1.6,1.6h-5.44a16.2,16.2,0,0,1-5.986-3.529,2.7,2.7,0,0,1-3.476-1.644,2.7,2.7,0,0,1-3.475,1.644,2.7,2.7,0,0,0-2.7,2.7v5.409a2.736,2.736,0,0,0-4.433,2.634l.912,4.623a9.456,9.456,0,0,0,2.61,4.883l1.6,1.6v5.44a16.2,16.2,0,0,1-3.529,5.986,2.7,2.7,0,0,1-1.644,3.476,2.7,2.7,0,0,1,1.644,3.475,2.7,2.7,0,0,0,2.7,2.7h5.409a2.737,2.737,0,0,0,2.1,4.485,2.786,2.786,0,0,0,.536-.053l4.623-.912a9.452,9.452,0,0,0,4.883-2.609l1.6-1.6h5.439a16.2,16.2,0,0,1,5.986,3.529,2.7,2.7,0,0,1,3.476,1.644,2.7,2.7,0,0,1,3.476-1.644,2.7,2.7,0,0,0,2.7-2.7V540.3a2.736,2.736,0,0,0,4.432-2.634Zm-28.687-24.034V508.09h5.649a.958.958,0,0,0,.678-.281l1.876-1.882a7.555,7.555,0,0,1,3.9-2.083l4.623-.911a.821.821,0,0,1,.355,1.6l-1.922.471a1.215,1.215,0,0,0,.289,2.394h8.949a.782.782,0,0,1,.094,1.559l-5.3.007a.958.958,0,0,0,0,1.916l6.853-.006a.783.783,0,1,1,0,1.566H1036.1a.958.958,0,0,0,0,1.916h5.3a.783.783,0,0,1-.094,1.56H1036.1a.958.958,0,0,0,0,1.916h3.483a.782.782,0,0,1-.093,1.559h-9.675a7.519,7.519,0,0,1-5.362-2.226l-1.214-1.216a.956.956,0,0,0-.678-.282h-5.649v-2.042Zm-15.383,7.907a7.546,7.546,0,0,1-2.083-3.9l-.912-4.622a.821.821,0,0,1,1.6-.355l.471,1.921a1.214,1.214,0,0,0,2.394-.289v-8.95a.783.783,0,0,1,1.56-.093l.006,5.3a.958.958,0,0,0,1.917,0v-5.209c0-.058,0-.115-.007-.173V503.7a.783.783,0,1,1,1.566,0v1.47c0,.058-.006.115-.006.174l.006,5.208a.958.958,0,0,0,1.917,0v-5.3a.782.782,0,0,1,1.559.093s0,4.661,0,4.7v.513a.958.958,0,0,0,1.916,0v-3.484a.783.783,0,0,1,1.56.094v9.675a7.623,7.623,0,0,1-2.226,5.362l-1.217,1.213a.957.957,0,0,0-.281.678v5.649h-1.916V527.2a.958.958,0,1,0-1.916,0v2.544H1003.7v-5.649a.957.957,0,0,0-.281-.678Zm23.814,21.424H1019.7a.955.955,0,0,0-.678.282l-1.877,1.881a7.54,7.54,0,0,1-3.9,2.083l-4.622.912a.821.821,0,0,1-.355-1.6l1.922-.471a1.215,1.215,0,0,0-.289-2.394h-8.95a.783.783,0,0,1-.093-1.56l5.3-.006a.958.958,0,0,0,0-1.916l-6.853.006a.783.783,0,1,1,0-1.566h6.853a.958.958,0,0,0,0-1.916h-5.3a.783.783,0,0,1,.093-1.56h5.209a.958.958,0,0,0,0-1.916h-3.483a.783.783,0,0,1,.093-1.56h9.675a7.522,7.522,0,0,1,5.362,2.226l1.213,1.217a.957.957,0,0,0,.678.281h5.649Zm.029-9.5h-5.281l-.932-.935a9.414,9.414,0,0,0-5.97-2.76v-5.281l.935-.932a9.558,9.558,0,0,0,2.758-5.97h5.282l.932.935a9.417,9.417,0,0,0,5.971,2.76v5.28l-.935.933A9.416,9.416,0,0,0,1025.375,533.464Zm18.219,5.193a.821.821,0,0,1-1.475-.268l-.471-1.921a1.215,1.215,0,0,0-2.394.289v8.949a.782.782,0,0,1-1.559.093l-.007-5.3a.958.958,0,0,0-1.916,0l.006,6.853a.783.783,0,1,1-1.566,0V540.5a.958.958,0,0,0-1.916,0v5.3a.783.783,0,0,1-1.56-.093V540.5a.958.958,0,0,0-1.916,0v3.483a.783.783,0,0,1-1.56-.093v-9.675a7.522,7.522,0,0,1,2.226-5.362l1.217-1.213a.956.956,0,0,0,.281-.678V521.31h3.695v2.906a.958.958,0,0,0,1.917,0V521.31h1.969v5.649a.959.959,0,0,0,.281.678l1.882,1.877a7.539,7.539,0,0,1,2.082,3.9l.912,4.622A.809.809,0,0,1,1043.594,538.657Z" transform="translate(-996.606 -501)" fill="#a19da7"/>
    </g>
    <g id="Grupo_144" data-name="Grupo 144" transform="translate(631.254 1733.352)">
      <path id="Trazado_81" data-name="Trazado 81" d="M919.585,436.843h.76a.76.76,0,0,0,.76-.761V430a.76.76,0,0,0-.76-.76h-.76v-1.972a11.055,11.055,0,0,0,3.04-7.646V411a52.777,52.777,0,0,1-5.319-3.8,2.261,2.261,0,0,1-3.04-1.52,2.26,2.26,0,0,1-3.039,1.52,2.283,2.283,0,0,0-2.28,2.28v5.46a2.251,2.251,0,0,0-.76-.14,2.282,2.282,0,0,0-2.28,2.28v2.541a11.055,11.055,0,0,0,3.039,7.646v1.973h-.76a.76.76,0,0,0-.76.76v6.079a.76.76,0,0,0,.76.761h.76v2.28h-7.6v-6.84h.76a.76.76,0,0,0,.76-.76v-4.56a.76.76,0,0,0-.76-.76h-.76v-1.971a11.055,11.055,0,0,0,3.039-7.647v-8.621a52.536,52.536,0,0,1-5.32-3.8,2.26,2.26,0,0,1-3.039-1.52,2.261,2.261,0,0,1-3.04,1.52,2.283,2.283,0,0,0-2.28,2.28V411.9a2.252,2.252,0,0,0-.76-.14,2.283,2.283,0,0,0-2.28,2.28v2.54a11.057,11.057,0,0,0,3.04,7.647V426.2h-.76a.76.76,0,0,0-.76.76v4.56a.76.76,0,0,0,.76.76h.76v6.84h-8.359v1.52h45.6v-1.52h-8.36Zm-9.342-10.417a9.553,9.553,0,0,1-2.818-6.8v-2.541a.76.76,0,1,1,1.52,0v3.039a.76.76,0,0,0,.761.76,2.283,2.283,0,0,1,2.28,2.28h1.52a3.806,3.806,0,0,0-3.039-3.723v-9.956a.76.76,0,1,1,1.52,0v7.6h1.52v-9.119a.76.76,0,0,1,1.52,0v9.119h1.52v-7.6a.76.76,0,0,1,1.52,0v7.6h1.52V411a.76.76,0,0,1,1.52,0v8.621a9.556,9.556,0,0,1-2.817,6.8.755.755,0,0,0-.223.537v2.28h-7.6v-2.28A.758.758,0,0,0,910.243,426.426Zm-1.3,4.337h10.64v4.559h-10.64Zm1.521,6.08h7.6v2.28h-7.6ZM892,423.387a9.555,9.555,0,0,1-2.817-6.8v-2.54a.76.76,0,0,1,1.52,0v3.04a.76.76,0,0,0,.76.76,2.283,2.283,0,0,1,2.28,2.28h1.52a3.805,3.805,0,0,0-3.04-3.722v-9.956a.76.76,0,0,1,1.52,0v7.6h1.52v-9.12a.76.76,0,1,1,1.52,0v9.12h1.52v-7.6a.76.76,0,1,1,1.52,0v7.6h1.521v-6.08a.76.76,0,0,1,1.52,0v8.62a9.554,9.554,0,0,1-2.817,6.8.758.758,0,0,0-.223.537v2.28h-7.6v-2.28A.755.755,0,0,0,892,423.387Zm-1.3,4.337h10.64v3.04h-10.64Zm1.52,4.56h7.6v6.84h-7.6Z" transform="translate(-881.587 -393.526)" fill="#3e0c8e"/>
      <path id="Trazado_82" data-name="Trazado 82" d="M939.431,390.32h-12.16a.76.76,0,0,0-.76.76v7.6a.76.76,0,0,0,.76.76h3.8v2.28a.76.76,0,0,0,1.3.538l2.818-2.818h4.245a.76.76,0,0,0,.76-.76v-7.6A.76.76,0,0,0,939.431,390.32Zm-.76,7.6h-3.8a.757.757,0,0,0-.537.223l-1.743,1.742v-1.205a.76.76,0,0,0-.76-.76h-3.8v-6.08h10.64Z" transform="translate(-893.074 -390.32)" fill="#3e0c8e"/>
      <path id="Trazado_83" data-name="Trazado 83" d="M934.729,394.428h1.52v3.04h-1.52Z" transform="translate(-895.212 -391.388)" fill="#3e0c8e"/>
      <path id="Trazado_84" data-name="Trazado 84" d="M887.483,394.428H889v3.04h-1.52Z" transform="translate(-882.923 -391.388)" fill="#3e0c8e"/>
      <path id="Trazado_85" data-name="Trazado 85" d="M884.8,399.439l2.818,2.818a.76.76,0,0,0,1.3-.538v-2.28h2.28a.76.76,0,0,0,.76-.76v-7.6a.76.76,0,0,0-.76-.76H882.08a.76.76,0,0,0-.76.76v7.6a.76.76,0,0,0,.76.76Zm-1.965-7.6h7.6v6.08h-2.28a.76.76,0,0,0-.76.76v1.205l-1.742-1.742a.757.757,0,0,0-.538-.223h-2.28Z" transform="translate(-881.32 -390.32)" fill="#3e0c8e"/>
      <path id="Trazado_86" data-name="Trazado 86" d="M930.621,394.428h1.52v3.04h-1.52Z" transform="translate(-894.143 -391.388)" fill="#3e0c8e"/>
      <path id="Trazado_87" data-name="Trazado 87" d="M938.837,394.428h1.521v3.04h-1.521Z" transform="translate(-896.28 -391.388)" fill="#3e0c8e"/>
    </g>
    <g id="Grupo_106" data-name="Grupo 106" transform="translate(752.368 1600.058)">
      <g id="Grupo_77" data-name="Grupo 77" transform="translate(18.461)">
        <g id="Grupo_76" data-name="Grupo 76" transform="translate(0 0)">
          <path id="Trazado_107" data-name="Trazado 107" d="M1248.709,528.461l-5.576-2.478a1.092,1.092,0,0,1-.649-1v-1.531a8.125,8.125,0,0,0,3.077-6.366v-2.155a1.989,1.989,0,0,0,1.026-1.737v-.21a8.148,8.148,0,0,0-8.139-8.138H1236.4a8.148,8.148,0,0,0-8.139,8.138v1.9a2.011,2.011,0,0,0,.766,1.612,1.853,1.853,0,0,0,.26.169v.424a8.127,8.127,0,0,0,3.076,6.366v1.531a1.093,1.093,0,0,1-.648,1l-5.576,2.478a5.067,5.067,0,0,0-3.006,4.625V545.8a.96.96,0,0,0,1.919,0V533.086a3.156,3.156,0,0,1,.019-.33l2.569,2.569a2.105,2.105,0,0,1,.621,1.5V545.8a.96.96,0,0,0,1.919,0v-8.982a4.007,4.007,0,0,0-1.183-2.854l-3.062-3.063a3.136,3.136,0,0,1,.983-.691l5.483-2.437,4.065,4.066V545.8a.959.959,0,1,0,1.919,0v-13.96l4.066-4.066,5.482,2.437a3.14,3.14,0,0,1,.983.691l-3.062,3.063a4.008,4.008,0,0,0-1.183,2.854V545.8a.96.96,0,0,0,1.919,0v-8.982a2.107,2.107,0,0,1,.62-1.5l2.569-2.569a3.037,3.037,0,0,1,.02.329V545.8a.959.959,0,1,0,1.919,0V533.086A5.067,5.067,0,0,0,1248.709,528.461Zm-11.286,1.628-3.568-3.568a3,3,0,0,0,.424-1.536v-.391a8.133,8.133,0,0,0,6.286,0v.391a3.008,3.008,0,0,0,.424,1.537Zm0-6.781a6.226,6.226,0,0,1-6.219-6.22v-.431a5.676,5.676,0,0,0,1.743-1.132.96.96,0,0,0-1.3-1.41,3.443,3.443,0,0,1-1.425.851.1.1,0,0,1-.026,0,.205.205,0,0,1-.016-.086v-1.9a6.226,6.226,0,0,1,6.219-6.219h2.051a6.226,6.226,0,0,1,6.219,6.219v.21a.062.062,0,0,1-.043.063c-5.745,1.135-8.628-1-9.6-1.976a.96.96,0,1,0-1.357,1.357c2.98,2.98,7.328,3.033,9.975,2.715v1.734A6.227,6.227,0,0,1,1237.424,523.307Z" transform="translate(-1223.132 -504.847)" fill="#3e0c8e"/>
        </g>
      </g>
      <g id="Grupo_79" data-name="Grupo 79" transform="translate(0 5.128)">
        <g id="Grupo_78" data-name="Grupo 78" transform="translate(0 0)">
          <path id="Trazado_108" data-name="Trazado 108" d="M1216.941,524.639v-2.052a7.111,7.111,0,0,0-3.261-5.974,4.036,4.036,0,1,0-7.7,0,7.112,7.112,0,0,0-3.261,5.974v2.052a7.106,7.106,0,0,0,3.077,5.852V532.6a1.085,1.085,0,0,1-.6.976l-3.319,1.66a4.015,4.015,0,0,0-2.231,3.61V547.2a.959.959,0,0,0,1.919,0v-7.939l1.563,1.563a2.1,2.1,0,0,1,.621,1.5V547.2a.96.96,0,0,0,1.919,0v-4.879a4.007,4.007,0,0,0-1.183-2.854l-2.175-2.176-.033-.029a2.138,2.138,0,0,1,.459-.31l3.318-1.66a3.027,3.027,0,0,0,.476-.3l2.346,2.346V547.2a.959.959,0,1,0,1.919,0v-9.858l2.346-2.346a3.022,3.022,0,0,0,.476.3l.915.457a.96.96,0,1,0,.859-1.716l-.916-.457a1.086,1.086,0,0,1-.6-.977v-2.11A7.11,7.11,0,0,0,1216.941,524.639Zm-7.113-11.347a2.12,2.12,0,0,1,2.118,2.117,2.166,2.166,0,0,1-.034.379,7.1,7.1,0,0,0-4.164,0,2.1,2.1,0,0,1-.037-.377A2.12,2.12,0,0,1,1209.828,513.292Zm0,4.1a5.2,5.2,0,0,1,5.194,5.194v.347a6.023,6.023,0,0,1-6.477-1.949.958.958,0,0,0-1.446-.1,6.274,6.274,0,0,1-2.461,1.571A5.2,5.2,0,0,1,1209.828,517.394Zm0,18.2-2.217-2.218a3.056,3.056,0,0,0,.1-.77V531.43a7.119,7.119,0,0,0,4.235,0V532.6a3.034,3.034,0,0,0,.1.77Zm0-5.756a5.2,5.2,0,0,1-5.193-5.194v-.2a7.7,7.7,0,0,0,3.083-1.536,8.643,8.643,0,0,0,1.78,1.3,7.627,7.627,0,0,0,3.667.947,8.056,8.056,0,0,0,1.85-.222A5.2,5.2,0,0,1,1209.828,529.833Z" transform="translate(-1199.639 -511.373)" fill="#3e0c8e"/>
        </g>
      </g>
      <g id="Grupo_81" data-name="Grupo 81" transform="translate(46.151 7.179)">
        <g id="Grupo_80" data-name="Grupo 80" transform="translate(0 0)">
          <path id="Trazado_109" data-name="Trazado 109" d="M1275.493,533.746l-5.37-2.685a1.085,1.085,0,0,1-.6-.977v-1.359a6.071,6.071,0,0,0,2.051-4.551v-1.092h.066a.96.96,0,0,0,.96-.959V520.07a6.1,6.1,0,0,0-6.087-6.088h-2.052a6.094,6.094,0,0,0-6.087,6.088v2.052a.959.959,0,0,0,.959.959h.066v1.093a6.072,6.072,0,0,0,2.051,4.551v1.36a1.086,1.086,0,0,1-.6.976.96.96,0,1,0,.858,1.717,3.083,3.083,0,0,0,.476-.3l2.346,2.346v12.935a.96.96,0,0,0,1.92,0V534.826l2.345-2.346a3.027,3.027,0,0,0,.476.3l5.2,2.6-1.576,1.576a4.012,4.012,0,0,0-1.183,2.854v7.956a.96.96,0,0,0,1.919,0V539.8a2.1,2.1,0,0,1,.62-1.5l1.493-1.493a2.16,2.16,0,0,1,.07.541v10.405a.959.959,0,0,0,1.919,0V537.356A4.015,4.015,0,0,0,1275.493,533.746Zm-15.2-12.781v-.894h0a4.173,4.173,0,0,1,4.168-4.169h2.052a4.173,4.173,0,0,1,4.168,4.169v.894A76.8,76.8,0,0,0,1260.29,520.965Zm5.194,12.107-2.217-2.218a3.056,3.056,0,0,0,.1-.77v-.2a6.086,6.086,0,0,0,4.235,0v.2a3.057,3.057,0,0,0,.1.77Zm0-4.73a4.173,4.173,0,0,1-4.169-4.168v-1.547h0c.672-.269,5.368-.3,8.337,0v1.547A4.172,4.172,0,0,1,1265.484,528.341Z" transform="translate(-1258.371 -513.983)" fill="#3e0c8e"/>
        </g>
      </g>
    </g>
    <path id="Trazado_167" data-name="Trazado 167" d="M55.7,27.44H53.642a11.321,11.321,0,0,0-22.253-.395,4.57,4.57,0,0,0-6.128,0A11.327,11.327,0,0,0,2.878,28.388H.942a.942.942,0,1,0,0,1.885H2.878a11.32,11.32,0,0,0,22.6-.632,3.579,3.579,0,0,1,2.844-1.885,3.579,3.579,0,0,1,2.849,1.885,11.323,11.323,0,0,0,22.643-.31H55.7a.945.945,0,0,0,0-1.89ZM14.23,38.769a9.44,9.44,0,1,1,0-18.879,9.44,9.44,0,0,1,0,18.879Zm28.319,0a9.44,9.44,0,1,1,0-18.879,9.44,9.44,0,0,1,0,18.879Z" transform="translate(766.055 1727.381)" fill="#a19da7" stroke="#a19da7" stroke-width="1"/>
  </g>
</svg>
