<svg xmlns="http://www.w3.org/2000/svg" width="113" height="113" viewBox="0 0 113 113">
  <g id="Grupo_152" data-name="Grupo 152" transform="translate(-240 -1981)">
    <path id="Trazado_171" data-name="Trazado 171" d="M56.5,0A56.5,56.5,0,1,1,0,56.5,56.5,56.5,0,0,1,56.5,0Z" transform="translate(240 1981)" fill="#a88bd8"/>
    <g id="Grupo_30" data-name="Grupo 30" transform="translate(268.428 2014.402)">
      <g id="Grupo_25" data-name="Grupo 25" transform="translate(49.516 4.604)">
        <g id="Grupo_24" data-name="Grupo 24">
          <path id="Trazado_12" data-name="Trazado 12" d="M317.956,203.6a1.1,1.1,0,1,0,.321.777A1.1,1.1,0,0,0,317.956,203.6Z" transform="translate(-316.08 -203.282)" fill="#3e0c8e"/>
        </g>
      </g>
      <g id="Grupo_27" data-name="Grupo 27" transform="translate(24.281 30.481)">
        <g id="Grupo_26" data-name="Grupo 26">
          <path id="Trazado_13" data-name="Trazado 13" d="M247.075,276.286a1.1,1.1,0,1,0,.321.777A1.1,1.1,0,0,0,247.075,276.286Z" transform="translate(-245.199 -275.964)" fill="#3e0c8e"/>
        </g>
      </g>
      <g id="Grupo_29" data-name="Grupo 29" transform="translate(0 0)">
        <g id="Grupo_28" data-name="Grupo 28">
          <path id="Trazado_14" data-name="Trazado 14" d="M231.052,198.924a1.1,1.1,0,1,0-1.91,1.087,14.759,14.759,0,0,1-2.4,17.687l-.833.833a4.115,4.115,0,0,0-.938-1.448l-11.289-11.289a7.594,7.594,0,0,0,2.019-1.447l2.165-2.165a1.1,1.1,0,0,0-1.554-1.554l-2.165,2.165a5.351,5.351,0,0,1-3.808,1.578h-4.329a1.1,1.1,0,0,0-.777.322l-3.314,3.314a2.524,2.524,0,0,1-3.569-3.569l7.565-7.565A14.787,14.787,0,0,1,223.47,194.4a1.1,1.1,0,0,0,1.066-1.922,17.046,17.046,0,0,0-10.45-1.968,16.745,16.745,0,0,0-8.953,4.085,16.924,16.924,0,0,0-23.177,24.646l.414.414a1.1,1.1,0,0,0,.237.178,4.13,4.13,0,0,0,4.125,3.817c.055,0,.11,0,.165,0,0,.056,0,.111,0,.167a4.137,4.137,0,0,0,4.14,4.138c.055,0,.11,0,.165,0,0,.056,0,.111,0,.167a4.137,4.137,0,0,0,4.141,4.138c.056,0,.111,0,.167,0a4.139,4.139,0,0,0,7.062,3.1l1.536-1.536,2.074,2.074a4.138,4.138,0,0,0,7.061-3.135c.069,0,.138.006.207.006a4.134,4.134,0,0,0,4.135-4.3c.056,0,.111,0,.167,0a4.136,4.136,0,0,0,4.134-4.306c.056,0,.111,0,.167,0a4.137,4.137,0,0,0,3.825-2.558,1.1,1.1,0,0,0,.3-.21l2.131-2.131A16.962,16.962,0,0,0,231.052,198.924Zm-44.32,22.529a1.943,1.943,0,0,1-1.374-3.317l1.893-1.893A1.943,1.943,0,0,1,190,218.991l-1.893,1.893A1.93,1.93,0,0,1,186.732,221.453Zm2.928,3.733a1.943,1.943,0,0,1,0-2.748l1.894-1.894h0a1.943,1.943,0,1,1,2.748,2.748l-1.893,1.894A1.946,1.946,0,0,1,189.659,225.186Zm4.3,4.3a1.942,1.942,0,0,1,0-2.748l1.893-1.893h0a1.943,1.943,0,0,1,2.748,2.748l-1.893,1.893A1.944,1.944,0,0,1,193.961,229.488ZM202.9,231.9l-1.894,1.894a1.943,1.943,0,0,1-2.748-2.748l1.894-1.894h0A1.943,1.943,0,1,1,202.9,231.9Zm20.516-10.513a1.943,1.943,0,0,1-2.748,0l-4.573-4.573h0l-4.3-4.3a1.1,1.1,0,0,0-1.554,1.554l8.875,8.875a1.943,1.943,0,0,1-2.748,2.748L207.5,216.81a1.1,1.1,0,0,0-1.554,1.554l4.3,4.3h0l4.573,4.573a1.943,1.943,0,0,1-2.748,2.748l-4.573-4.573a1.1,1.1,0,0,0-.281-.2l-1.3-1.3a1.1,1.1,0,1,0-1.554,1.554l6.12,6.119a1.943,1.943,0,1,1-2.747,2.748L205.4,232a4.142,4.142,0,0,0-3.869-5.617c-.056,0-.112,0-.167,0a4.136,4.136,0,0,0-4.134-4.306c-.056,0-.111,0-.167,0a4.136,4.136,0,0,0-4.134-4.306c-.056,0-.111,0-.167,0a4.138,4.138,0,0,0-7.062-3.093l-1.893,1.893a4.143,4.143,0,0,0-.61.777,14.727,14.727,0,0,1,20.358-21.23l-6.752,6.752a4.721,4.721,0,0,0,6.677,6.677l2.992-2.992h3.873a7.689,7.689,0,0,0,.948-.061l12.13,12.13A1.946,1.946,0,0,1,223.42,221.384Z" transform="translate(-176.999 -190.349)" fill="#3e0c8e"/>
        </g>
      </g>
    </g>
  </g>
</svg>
