<svg xmlns="http://www.w3.org/2000/svg" width="94" height="94" viewBox="0 0 94 94">
  <g id="Grupo_151" data-name="Grupo 151" transform="translate(-454 -254)">
    <circle id="Elipse_36" data-name="Elipse 36" cx="47" cy="47" r="47" transform="translate(454 254)" fill="#f7f6f9" opacity="0.69"/>
    <g id="Grupo_150" data-name="Grupo 150">
      <g id="Grupo_54" data-name="Grupo 54" transform="translate(477.529 274.975)">
        <g id="Grupo_35" data-name="Grupo 35" transform="translate(0 0)">
          <g id="Grupo_34" data-name="Grupo 34">
            <path id="Trazado_30" data-name="Trazado 30" d="M257.079,229.74a1.031,1.031,0,0,0,1.031-1.031V217.5a3.1,3.1,0,0,0-3.092-3.092H217.5a3.1,3.1,0,0,0-3.092,3.092v46.584a3.1,3.1,0,0,0,3.092,3.092h37.514a3.1,3.1,0,0,0,3.092-3.092v-7.592a1.031,1.031,0,1,0-2.061,0v7.592a1.032,1.032,0,0,1-1.031,1.031H217.5a1.032,1.032,0,0,1-1.031-1.031V217.5a1.032,1.032,0,0,1,1.031-1.031h37.514a1.032,1.032,0,0,1,1.031,1.031v11.208A1.03,1.03,0,0,0,257.079,229.74Z" transform="translate(-214.411 -214.41)" fill="#3e0c8e"/>
          </g>
        </g>
        <g id="Grupo_37" data-name="Grupo 37" transform="translate(12.367 5.565)">
          <g id="Grupo_36" data-name="Grupo 36">
            <path id="Trazado_31" data-name="Trazado 31" d="M243.388,223.183a9.477,9.477,0,0,0-6.5,16.373,1,1,0,0,0,.11.1,9.462,9.462,0,0,0,12.788,0,1.009,1.009,0,0,0,.111-.1,9.477,9.477,0,0,0-6.5-16.373Zm0,16.9a7.382,7.382,0,0,1-4.482-1.512,5.154,5.154,0,0,1,8.965,0A7.382,7.382,0,0,1,243.388,240.085Zm-1.649-7.833v-.67a1.649,1.649,0,0,1,3.3,0v.67a1.649,1.649,0,1,1-3.3,0Zm7.621,4.812a7.15,7.15,0,0,0-3.037-2.546,3.687,3.687,0,0,0,.776-2.266v-.67a3.71,3.71,0,0,0-7.421,0v.67a3.691,3.691,0,0,0,.775,2.266,7.152,7.152,0,0,0-3.036,2.546,7.42,7.42,0,1,1,11.943,0Z" transform="translate(-233.906 -223.183)" fill="#3e0c8e"/>
          </g>
        </g>
        <g id="Grupo_39" data-name="Grupo 39" transform="translate(20.818 45.141)">
          <g id="Grupo_38" data-name="Grupo 38">
            <path id="Trazado_32" data-name="Trazado 32" d="M253.824,285.568h-5.565a1.031,1.031,0,1,0,0,2.061h5.565a1.031,1.031,0,0,0,0-2.061Z" transform="translate(-247.228 -285.568)" fill="#3e0c8e"/>
          </g>
        </g>
        <g id="Grupo_41" data-name="Grupo 41" transform="translate(11.749 39.369)">
          <g id="Grupo_40" data-name="Grupo 40" transform="translate(0 0)">
            <path id="Trazado_33" data-name="Trazado 33" d="M248.6,276.47H233.962a1.031,1.031,0,0,0,0,2.061H248.6a1.031,1.031,0,0,0,0-2.061Z" transform="translate(-232.932 -276.47)" fill="#3e0c8e"/>
          </g>
        </g>
        <g id="Grupo_43" data-name="Grupo 43" transform="translate(11.749 33.598)">
          <g id="Grupo_42" data-name="Grupo 42">
            <path id="Trazado_34" data-name="Trazado 34" d="M248.6,267.372H233.962a1.031,1.031,0,0,0,0,2.062H248.6a1.031,1.031,0,0,0,0-2.062Z" transform="translate(-232.932 -267.372)" fill="#3e0c8e"/>
          </g>
        </g>
        <g id="Grupo_45" data-name="Grupo 45" transform="translate(7.346 27.826)">
          <g id="Grupo_44" data-name="Grupo 44">
            <path id="Trazado_35" data-name="Trazado 35" d="M227.751,258.576a1.031,1.031,0,1,0,.3.729A1.039,1.039,0,0,0,227.751,258.576Z" transform="translate(-225.991 -258.274)" fill="#3e0c8e"/>
          </g>
        </g>
        <g id="Grupo_47" data-name="Grupo 47" transform="translate(7.346 33.598)">
          <g id="Grupo_46" data-name="Grupo 46">
            <path id="Trazado_36" data-name="Trazado 36" d="M227.751,267.674a1.031,1.031,0,1,0,.3.729A1.041,1.041,0,0,0,227.751,267.674Z" transform="translate(-225.991 -267.372)" fill="#3e0c8e"/>
          </g>
        </g>
        <g id="Grupo_49" data-name="Grupo 49" transform="translate(7.346 39.369)">
          <g id="Grupo_48" data-name="Grupo 48" transform="translate(0 0)">
            <path id="Trazado_37" data-name="Trazado 37" d="M227.751,276.772a1.03,1.03,0,1,0,.3.729A1.041,1.041,0,0,0,227.751,276.772Z" transform="translate(-225.991 -276.47)" fill="#3e0c8e"/>
          </g>
        </g>
        <g id="Grupo_51" data-name="Grupo 51" transform="translate(11.749 27.826)">
          <g id="Grupo_50" data-name="Grupo 50">
            <path id="Trazado_38" data-name="Trazado 38" d="M248.6,258.274H233.962a1.031,1.031,0,0,0,0,2.062H248.6a1.031,1.031,0,0,0,0-2.062Z" transform="translate(-232.932 -258.274)" fill="#3e0c8e"/>
          </g>
        </g>
        <g id="Grupo_53" data-name="Grupo 53" transform="translate(30.669 12.849)">
          <g id="Grupo_52" data-name="Grupo 52">
            <path id="Trazado_39" data-name="Trazado 39" d="M282.69,235.247a4.328,4.328,0,0,0-5.913,1.584l-12.97,22.464a1.041,1.041,0,0,0-.131.4l-.913,8.178a1.031,1.031,0,0,0,1.635.944l6.625-4.88a1.018,1.018,0,0,0,.282-.314l12.969-22.464A4.333,4.333,0,0,0,282.69,235.247Zm-17.617,30.514.476-4.271,2.983,1.722Zm4.962-4.061-3.927-2.267,10.408-18.027,3.927,2.268Zm12.454-21.571-1.016,1.76-3.927-2.267,1.016-1.76a2.267,2.267,0,0,1,3.927,2.267Z" transform="translate(-262.757 -234.665)" fill="#3e0c8e"/>
          </g>
        </g>
      </g>
    </g>
  </g>
</svg>
