<svg id="Grupo_55" data-name="Grupo 55" xmlns="http://www.w3.org/2000/svg" width="166.954" height="17.646" viewBox="0 0 166.954 17.646">
  <path id="Trazado_47" data-name="Trazado 47" d="M81.6,665.919a5.366,5.366,0,0,1,2.045,3.111h-2.21a3.553,3.553,0,0,0-1.391-1.676,4.137,4.137,0,0,0-2.293-.626,4.226,4.226,0,0,0-2.183.571,3.94,3.94,0,0,0-1.51,1.622,5.281,5.281,0,0,0-.543,2.467,5.51,5.51,0,0,0,.553,2.56,3.832,3.832,0,0,0,1.556,1.63,4.676,4.676,0,0,0,2.33.563,4.108,4.108,0,0,0,2.781-1.005,4.25,4.25,0,0,0,1.4-2.754H77.361v-1.546H83.9v2.006a6.237,6.237,0,0,1-1.022,2.606,5.827,5.827,0,0,1-2.118,1.87,6.319,6.319,0,0,1-3.012.7,6.539,6.539,0,0,1-3.352-.846,5.793,5.793,0,0,1-2.247-2.35,7.829,7.829,0,0,1,0-6.869,5.748,5.748,0,0,1,2.238-2.341,6.546,6.546,0,0,1,3.343-.838A6.331,6.331,0,0,1,81.6,665.919Z" transform="translate(-71.355 -660.374)" fill="#4f00b1"/>
  <path id="Trazado_48" data-name="Trazado 48" d="M85.406,668.115v3.943H90.2v1.619H85.406v4.034h5.342v1.713h-7.44v-13h7.44v1.693Zm4.551-4.566-4.072,2.08v-1.474l4.072-2.247Z" transform="translate(-64.961 -661.908)" fill="#4f00b1"/>
  <path id="Trazado_49" data-name="Trazado 49" d="M102.406,677.846h-2.1l-6.319-9.6v9.6h-2.1V664.86h2.1l6.319,9.635V664.86h2.1Z" transform="translate(-60.371 -660.329)" fill="#4f00b1"/>
  <path id="Trazado_50" data-name="Trazado 50" d="M104.9,666.542v3.943h4.789V672.1H104.9v4.034h5.342v1.713H102.8v-13h7.441v1.693Z" transform="translate(-54.535 -660.335)" fill="#4f00b1"/>
  <path id="Trazado_51" data-name="Trazado 51" d="M118.21,677.852l-3.242-5.193h-1.492v5.193h-2.1v-13h4.586a4.742,4.742,0,0,1,3.38,1.087,3.763,3.763,0,0,1,1.151,2.873,3.658,3.658,0,0,1-.857,2.5,4.085,4.085,0,0,1-2.477,1.251l3.408,5.286Zm-4.734-6.686H115.8q2.542,0,2.542-2.247a2.217,2.217,0,0,0-.617-1.667,2.677,2.677,0,0,0-1.925-.6h-2.321Z" transform="translate(-49.945 -660.335)" fill="#4f00b1"/>
  <path id="Trazado_52" data-name="Trazado 52" d="M129.406,675.894h-4.347l-.645,1.971h-4.29l4.769-13.041h4.717l4.751,13.041h-4.31Zm-.995-3.076-1.179-3.629-1.179,3.629Z" transform="translate(-45.266 -660.348)" fill="#4f00b1"/>
  <path id="Trazado_53" data-name="Trazado 53" d="M141.636,665.375a5.629,5.629,0,0,1,2.175,1.8,6.529,6.529,0,0,1,1.113,2.708h-4.31a2.329,2.329,0,0,0-.838-1,2.19,2.19,0,0,0-1.242-.361,1.947,1.947,0,0,0-1.63.773,3.91,3.91,0,0,0,0,4.163,1.947,1.947,0,0,0,1.63.773,2.2,2.2,0,0,0,1.242-.358,2.336,2.336,0,0,0,.838-1.005h4.31a6.528,6.528,0,0,1-1.113,2.708,5.62,5.62,0,0,1-2.175,1.8,6.99,6.99,0,0,1-3.03.634,6.746,6.746,0,0,1-3.426-.838,5.65,5.65,0,0,1-2.238-2.347,7.973,7.973,0,0,1,0-6.891,5.654,5.654,0,0,1,2.238-2.348,6.759,6.759,0,0,1,3.426-.838A6.965,6.965,0,0,1,141.636,665.375Z" transform="translate(-38.827 -660.393)" fill="#4f00b1"/>
  <path id="Trazado_54" data-name="Trazado 54" d="M154.333,664.824v3.243H150.87v9.8h-4.089v-9.8h-3.426v-3.243Z" transform="translate(-32.838 -660.348)" fill="#4f00b1"/>
  <path id="Trazado_55" data-name="Trazado 55" d="M157.718,664.824v13.041h-4.091V664.824Z" transform="translate(-27.343 -660.348)" fill="#4f00b1"/>
  <path id="Trazado_56" data-name="Trazado 56" d="M163.638,664.824l2.689,8.97,2.671-8.97h4.347l-4.384,13.041h-5.286l-4.384-13.041Z" transform="translate(-24.313 -660.348)" fill="#4f00b1"/>
  <path id="Trazado_57" data-name="Trazado 57" d="M180.13,675.894h-4.347l-.645,1.971h-4.292l4.771-13.041h4.715l4.752,13.041h-4.31Zm-.995-3.076-1.179-3.629-1.179,3.629Z" transform="translate(-18.131 -660.348)" fill="#4f00b1"/>
</svg>
