<svg xmlns="http://www.w3.org/2000/svg" width="201.37" height="14.811" viewBox="0 0 201.37 14.811">
  <path id="Trazado_180" data-name="Trazado 180" d="M7.171-10.011V-8.96H4.345V0H3.053V-8.96H.227v-1.051ZM9.741-6.22a2.867,2.867,0,0,1,1.122-1.257,3.334,3.334,0,0,1,1.761-.447v1.406h-.4a2.761,2.761,0,0,0-1.789.561,2.246,2.246,0,0,0-.7,1.853V0H8.449V-7.8H9.741ZM17.1-7.9a3.2,3.2,0,0,1,1.924.568,2.96,2.96,0,0,1,1.1,1.519V-7.8h1.292V0H20.121V-1.988a2.96,2.96,0,0,1-1.1,1.519A3.2,3.2,0,0,1,17.1.1a3.534,3.534,0,0,1-1.846-.483A3.339,3.339,0,0,1,13.98-1.768a4.6,4.6,0,0,1-.462-2.123,4.647,4.647,0,0,1,.462-2.13,3.33,3.33,0,0,1,1.271-1.392A3.534,3.534,0,0,1,17.1-7.9Zm.369,1.15a2.5,2.5,0,0,0-1.91.76,2.929,2.929,0,0,0-.717,2.095A2.929,2.929,0,0,0,15.556-1.8a2.5,2.5,0,0,0,1.91.76,2.652,2.652,0,0,0,1.37-.355,2.471,2.471,0,0,0,.944-1,3.165,3.165,0,0,0,.341-1.5A3.207,3.207,0,0,0,19.781-5.4a2.413,2.413,0,0,0-.944-1A2.694,2.694,0,0,0,17.466-6.745ZM27.775-7.9a3.534,3.534,0,0,1,1.846.483,3.33,3.33,0,0,1,1.271,1.392,4.647,4.647,0,0,1,.462,2.13,4.6,4.6,0,0,1-.462,2.123A3.339,3.339,0,0,1,29.621-.383,3.534,3.534,0,0,1,27.775.1a3.175,3.175,0,0,1-1.924-.575,2.922,2.922,0,0,1-1.086-1.512V0H23.473V-10.508h1.292v4.7A2.922,2.922,0,0,1,25.851-7.32,3.175,3.175,0,0,1,27.775-7.9Zm-.369,1.15a2.7,2.7,0,0,0-1.363.348,2.4,2.4,0,0,0-.951,1,3.207,3.207,0,0,0-.341,1.505,3.165,3.165,0,0,0,.341,1.5,2.457,2.457,0,0,0,.951,1,2.662,2.662,0,0,0,1.363.355A2.52,2.52,0,0,0,29.33-1.8a2.929,2.929,0,0,0,.717-2.095,2.929,2.929,0,0,0-.717-2.095A2.52,2.52,0,0,0,27.406-6.745ZM36.238-7.9a3.2,3.2,0,0,1,1.924.568,2.96,2.96,0,0,1,1.1,1.519V-7.8h1.292V0H39.263V-1.988a2.96,2.96,0,0,1-1.1,1.519A3.2,3.2,0,0,1,36.238.1a3.534,3.534,0,0,1-1.846-.483,3.339,3.339,0,0,1-1.271-1.385,4.6,4.6,0,0,1-.462-2.123,4.647,4.647,0,0,1,.462-2.13,3.33,3.33,0,0,1,1.271-1.392A3.534,3.534,0,0,1,36.238-7.9Zm.369,1.15a2.5,2.5,0,0,0-1.91.76,2.929,2.929,0,0,0-.717,2.095A2.929,2.929,0,0,0,34.7-1.8a2.5,2.5,0,0,0,1.91.76,2.651,2.651,0,0,0,1.37-.355,2.471,2.471,0,0,0,.944-1,3.165,3.165,0,0,0,.341-1.5A3.207,3.207,0,0,0,38.922-5.4a2.413,2.413,0,0,0-.944-1A2.694,2.694,0,0,0,36.608-6.745Zm6.745-2.542a.938.938,0,0,1-.646-.22.732.732,0,0,1-.248-.575.732.732,0,0,1,.248-.575.938.938,0,0,1,.646-.22.891.891,0,0,1,.625.22.742.742,0,0,1,.241.575.742.742,0,0,1-.241.575A.891.891,0,0,1,43.353-9.287ZM41.18,2.556h.54a1.041,1.041,0,0,0,.746-.227,1.062,1.062,0,0,0,.234-.781V-7.8h1.306V1.59a1.87,1.87,0,0,1-2.13,2.1h-.7ZM49.6-7.9a4.136,4.136,0,0,1,2.009.483A3.455,3.455,0,0,1,53-6.021a4.321,4.321,0,0,1,.5,2.13A4.281,4.281,0,0,1,53-1.768,3.467,3.467,0,0,1,51.61-.383,4.136,4.136,0,0,1,49.6.1a4.136,4.136,0,0,1-2.009-.483,3.513,3.513,0,0,1-1.4-1.385,4.233,4.233,0,0,1-.511-2.123,4.273,4.273,0,0,1,.511-2.13,3.5,3.5,0,0,1,1.4-1.392A4.136,4.136,0,0,1,49.6-7.9Zm0,1.136a2.7,2.7,0,0,0-1.285.312,2.349,2.349,0,0,0-.951.958A3.228,3.228,0,0,0,47-3.891a3.2,3.2,0,0,0,.362,1.583,2.349,2.349,0,0,0,.951.959,2.7,2.7,0,0,0,1.285.312,2.7,2.7,0,0,0,1.285-.312,2.349,2.349,0,0,0,.951-.959A3.2,3.2,0,0,0,52.2-3.891a3.228,3.228,0,0,0-.362-1.6,2.349,2.349,0,0,0-.951-.958A2.7,2.7,0,0,0,49.6-6.759ZM59.242-7.8,61.77-1.661,64.113-7.8h1.434L60.918,3.692H59.455l1.619-3.82L57.794-7.8ZM77.4-4.331a3.848,3.848,0,0,1-.057.71H71.114a2.732,2.732,0,0,0,.76,2,2.479,2.479,0,0,0,1.754.667A2.535,2.535,0,0,0,75.2-1.427,1.967,1.967,0,0,0,75.97-2.7h1.377a3.275,3.275,0,0,1-.632,1.448,3.279,3.279,0,0,1-1.271.994A4.209,4.209,0,0,1,73.684.1,4.014,4.014,0,0,1,71.7-.383,3.412,3.412,0,0,1,70.34-1.768a4.381,4.381,0,0,1-.49-2.123,4.423,4.423,0,0,1,.49-2.13A3.4,3.4,0,0,1,71.7-7.412,4.014,4.014,0,0,1,73.684-7.9a3.924,3.924,0,0,1,1.981.483A3.324,3.324,0,0,1,76.957-6.12,3.637,3.637,0,0,1,77.4-4.331ZM76.1-4.246a2.652,2.652,0,0,0-.284-1.448,2.076,2.076,0,0,0-.895-.866,2.724,2.724,0,0,0-1.235-.284,2.557,2.557,0,0,0-1.789.66,2.661,2.661,0,0,0-.781,1.938Zm6.276-3.621a3.184,3.184,0,0,1,1.839.518,2.932,2.932,0,0,1,1.1,1.4V-7.8h1.292V3.692H85.314V-1.9A3.119,3.119,0,0,1,84.2-.44,3.069,3.069,0,0,1,82.374.1,3.644,3.644,0,0,1,80.5-.391a3.421,3.421,0,0,1-1.313-1.392,4.424,4.424,0,0,1-.476-2.094,4.424,4.424,0,0,1,.476-2.094A3.47,3.47,0,0,1,80.5-7.37,3.6,3.6,0,0,1,82.374-7.867Zm.284,1.122a2.514,2.514,0,0,0-1.9.76,2.915,2.915,0,0,0-.731,2.109,2.881,2.881,0,0,0,.724,2.094,2.533,2.533,0,0,0,1.9.745A2.638,2.638,0,0,0,84-1.385a2.518,2.518,0,0,0,.958-.994,3.092,3.092,0,0,0,.355-1.512A3.092,3.092,0,0,0,84.959-5.4,2.518,2.518,0,0,0,84-6.4,2.638,2.638,0,0,0,82.658-6.745ZM95.594-7.8V0H94.3V-1.832A2.622,2.622,0,0,1,93.244-.376a3.123,3.123,0,0,1-1.768.5A2.893,2.893,0,0,1,89.29-.746a3.479,3.479,0,0,1-.838-2.506V-7.8h1.292V-3.38a2.517,2.517,0,0,0,.6,1.8,2.119,2.119,0,0,0,1.619.632,2.213,2.213,0,0,0,1.7-.689A2.853,2.853,0,0,0,94.3-3.649V-7.8Zm1.846-2.286a.742.742,0,0,1,.241-.575.912.912,0,0,1,.639-.22.912.912,0,0,1,.639.22.742.742,0,0,1,.241.575.742.742,0,0,1-.241.575.912.912,0,0,1-.639.22.912.912,0,0,1-.639-.22A.742.742,0,0,1,97.44-10.082ZM98.96-7.8V0H97.668V-7.8Zm5.268-.1a3.2,3.2,0,0,1,1.924.568,2.96,2.96,0,0,1,1.1,1.519v-4.7h1.292V0h-1.292V-1.988a2.96,2.96,0,0,1-1.1,1.519A3.2,3.2,0,0,1,104.228.1a3.534,3.534,0,0,1-1.846-.483,3.339,3.339,0,0,1-1.271-1.385,4.6,4.6,0,0,1-.462-2.123,4.647,4.647,0,0,1,.462-2.13,3.33,3.33,0,0,1,1.271-1.392A3.534,3.534,0,0,1,104.228-7.9Zm.369,1.15a2.5,2.5,0,0,0-1.91.76,2.929,2.929,0,0,0-.717,2.095,2.929,2.929,0,0,0,.717,2.095,2.5,2.5,0,0,0,1.91.76,2.652,2.652,0,0,0,1.37-.355,2.471,2.471,0,0,0,.944-1,3.165,3.165,0,0,0,.341-1.5,3.207,3.207,0,0,0-.341-1.505,2.413,2.413,0,0,0-.944-1A2.694,2.694,0,0,0,104.6-6.745Zm9.2-1.15a3.2,3.2,0,0,1,1.924.568,2.96,2.96,0,0,1,1.1,1.519V-7.8h1.292V0h-1.292V-1.988a2.96,2.96,0,0,1-1.1,1.519A3.2,3.2,0,0,1,113.8.1a3.534,3.534,0,0,1-1.846-.483,3.339,3.339,0,0,1-1.271-1.385,4.6,4.6,0,0,1-.462-2.123,4.647,4.647,0,0,1,.462-2.13,3.33,3.33,0,0,1,1.271-1.392A3.534,3.534,0,0,1,113.8-7.9Zm.369,1.15a2.5,2.5,0,0,0-1.91.76,2.929,2.929,0,0,0-.717,2.095,2.929,2.929,0,0,0,.717,2.095,2.5,2.5,0,0,0,1.91.76,2.652,2.652,0,0,0,1.37-.355,2.471,2.471,0,0,0,.944-1,3.165,3.165,0,0,0,.341-1.5,3.207,3.207,0,0,0-.341-1.505,2.413,2.413,0,0,0-.944-1A2.694,2.694,0,0,0,114.168-6.745Zm9.2-1.15a3.2,3.2,0,0,1,1.924.568,2.96,2.96,0,0,1,1.1,1.519v-4.7h1.292V0h-1.292V-1.988a2.96,2.96,0,0,1-1.1,1.519A3.2,3.2,0,0,1,123.37.1a3.534,3.534,0,0,1-1.846-.483,3.339,3.339,0,0,1-1.271-1.385,4.6,4.6,0,0,1-.462-2.123,4.647,4.647,0,0,1,.462-2.13,3.33,3.33,0,0,1,1.271-1.392A3.534,3.534,0,0,1,123.37-7.9Zm.369,1.15a2.5,2.5,0,0,0-1.91.76,2.929,2.929,0,0,0-.717,2.095,2.929,2.929,0,0,0,.717,2.095,2.5,2.5,0,0,0,1.91.76,2.652,2.652,0,0,0,1.37-.355,2.471,2.471,0,0,0,.944-1,3.165,3.165,0,0,0,.341-1.5,3.207,3.207,0,0,0-.341-1.505,2.413,2.413,0,0,0-.944-1A2.694,2.694,0,0,0,123.739-6.745Zm16.685,2.414a3.849,3.849,0,0,1-.057.71h-6.234a2.732,2.732,0,0,0,.76,2,2.479,2.479,0,0,0,1.754.667,2.535,2.535,0,0,0,1.569-.476A1.967,1.967,0,0,0,138.99-2.7h1.377a3.274,3.274,0,0,1-.632,1.448,3.279,3.279,0,0,1-1.271.994A4.209,4.209,0,0,1,136.7.1a4.014,4.014,0,0,1-1.988-.483,3.412,3.412,0,0,1-1.356-1.385,4.381,4.381,0,0,1-.49-2.123,4.423,4.423,0,0,1,.49-2.13,3.4,3.4,0,0,1,1.356-1.392A4.014,4.014,0,0,1,136.7-7.9a3.924,3.924,0,0,1,1.981.483,3.324,3.324,0,0,1,1.292,1.292A3.637,3.637,0,0,1,140.424-4.331Zm-1.306.085a2.652,2.652,0,0,0-.284-1.448,2.076,2.076,0,0,0-.895-.866,2.724,2.724,0,0,0-1.235-.284,2.557,2.557,0,0,0-1.789.66,2.661,2.661,0,0,0-.781,1.938Zm7.1-3.678a2.911,2.911,0,0,1,2.2.873,3.5,3.5,0,0,1,.838,2.521V0h-1.292V-4.416a2.491,2.491,0,0,0-.6-1.789,2.132,2.132,0,0,0-1.619-.625,2.213,2.213,0,0,0-1.7.689,2.853,2.853,0,0,0-.639,2.009V0h-1.292V-7.8h1.292V-5.95a2.656,2.656,0,0,1,1.058-1.463A3.067,3.067,0,0,1,146.217-7.924Zm11.729.028a3.2,3.2,0,0,1,1.924.568,2.96,2.96,0,0,1,1.1,1.519V-7.8h1.292V0h-1.292V-1.988a2.96,2.96,0,0,1-1.1,1.519A3.2,3.2,0,0,1,157.947.1,3.534,3.534,0,0,1,156.1-.383a3.339,3.339,0,0,1-1.271-1.385,4.6,4.6,0,0,1-.462-2.123,4.647,4.647,0,0,1,.462-2.13A3.33,3.33,0,0,1,156.1-7.412,3.534,3.534,0,0,1,157.947-7.9Zm.369,1.15a2.5,2.5,0,0,0-1.91.76,2.929,2.929,0,0,0-.717,2.095,2.929,2.929,0,0,0,.717,2.095,2.5,2.5,0,0,0,1.91.76,2.651,2.651,0,0,0,1.37-.355,2.471,2.471,0,0,0,.944-1,3.165,3.165,0,0,0,.341-1.5A3.207,3.207,0,0,0,160.63-5.4a2.414,2.414,0,0,0-.944-1A2.694,2.694,0,0,0,158.316-6.745Zm9.457-1.15a3.794,3.794,0,0,1,2.471.8,3.369,3.369,0,0,1,1.207,2.13h-1.363a1.993,1.993,0,0,0-.774-1.313,2.535,2.535,0,0,0-1.569-.476,2.51,2.51,0,0,0-1.243.312,2.272,2.272,0,0,0-.9.958,3.394,3.394,0,0,0-.341,1.6,3.394,3.394,0,0,0,.341,1.6,2.272,2.272,0,0,0,.9.959,2.51,2.51,0,0,0,1.243.312,2.509,2.509,0,0,0,1.569-.483,2.02,2.02,0,0,0,.774-1.321h1.363a3.349,3.349,0,0,1-1.207,2.137A3.817,3.817,0,0,1,167.773.1a4.014,4.014,0,0,1-1.988-.483,3.412,3.412,0,0,1-1.356-1.385,4.381,4.381,0,0,1-.49-2.123,4.423,4.423,0,0,1,.49-2.13,3.4,3.4,0,0,1,1.356-1.392A4.014,4.014,0,0,1,167.773-7.9Zm8.818,0a3.794,3.794,0,0,1,2.471.8,3.369,3.369,0,0,1,1.207,2.13h-1.363a1.993,1.993,0,0,0-.774-1.313,2.535,2.535,0,0,0-1.569-.476,2.51,2.51,0,0,0-1.243.312,2.272,2.272,0,0,0-.9.958,3.394,3.394,0,0,0-.341,1.6,3.394,3.394,0,0,0,.341,1.6,2.272,2.272,0,0,0,.9.959,2.51,2.51,0,0,0,1.243.312,2.509,2.509,0,0,0,1.569-.483,2.02,2.02,0,0,0,.774-1.321h1.363a3.349,3.349,0,0,1-1.207,2.137A3.817,3.817,0,0,1,176.591.1,4.014,4.014,0,0,1,174.6-.383a3.412,3.412,0,0,1-1.356-1.385,4.381,4.381,0,0,1-.49-2.123,4.423,4.423,0,0,1,.49-2.13A3.4,3.4,0,0,1,174.6-7.412,4.014,4.014,0,0,1,176.591-7.9Zm5.14-2.187a.742.742,0,0,1,.241-.575.912.912,0,0,1,.639-.22.912.912,0,0,1,.639.22.742.742,0,0,1,.241.575.742.742,0,0,1-.241.575.912.912,0,0,1-.639.22.912.912,0,0,1-.639-.22A.742.742,0,0,1,181.732-10.082ZM183.251-7.8V0h-1.292V-7.8Zm5.609-.1a4.136,4.136,0,0,1,2.009.483,3.455,3.455,0,0,1,1.392,1.392,4.321,4.321,0,0,1,.5,2.13,4.281,4.281,0,0,1-.5,2.123,3.467,3.467,0,0,1-1.392,1.385A4.136,4.136,0,0,1,188.86.1a4.136,4.136,0,0,1-2.009-.483,3.513,3.513,0,0,1-1.4-1.385,4.233,4.233,0,0,1-.511-2.123,4.273,4.273,0,0,1,.511-2.13,3.5,3.5,0,0,1,1.4-1.392A4.136,4.136,0,0,1,188.86-7.9Zm0,1.136a2.7,2.7,0,0,0-1.285.312,2.349,2.349,0,0,0-.951.958,3.228,3.228,0,0,0-.362,1.6,3.2,3.2,0,0,0,.362,1.583,2.349,2.349,0,0,0,.951.959,2.7,2.7,0,0,0,1.285.312,2.7,2.7,0,0,0,1.285-.312,2.349,2.349,0,0,0,.951-.959,3.2,3.2,0,0,0,.362-1.583,3.228,3.228,0,0,0-.362-1.6,2.349,2.349,0,0,0-.951-.958A2.7,2.7,0,0,0,188.86-6.759Zm2.329-3.309-3.025,1.661v-.923l3.025-1.789Zm7.37,2.144a2.911,2.911,0,0,1,2.2.873A3.5,3.5,0,0,1,201.6-4.53V0h-1.292V-4.416a2.491,2.491,0,0,0-.6-1.789,2.132,2.132,0,0,0-1.619-.625,2.213,2.213,0,0,0-1.7.689,2.853,2.853,0,0,0-.639,2.009V0h-1.292V-7.8h1.292V-5.95A2.656,2.656,0,0,1,196.8-7.412,3.067,3.067,0,0,1,198.559-7.924Z" transform="translate(-0.227 11.119)" fill="#3a3a3a" opacity="0.66"/>
</svg>
